<svg width="517" height="346" viewBox="0 0 517 346" fill="none" xmlns="http://www.w3.org/2000/svg">
<path d="M77.2293 152.38C81.5613 152.917 85.8934 151.493 89.0842 148.507C96.9564 141.133 120.853 122.257 156.394 125.5C200.367 129.513 216.344 48.3133 147.311 49.41C78.254 50.5067 63.3714 112.037 62.9987 126.947C62.6959 139.01 66.4224 151.05 77.2293 152.38Z" fill="url(#paint0_linear_434_157)"/>
<path d="M496.898 72.832C492.566 72.2953 488.234 73.7187 485.043 76.7053C477.171 84.0787 453.275 102.932 417.733 99.712C373.761 95.6987 357.783 176.899 426.817 175.802C495.873 174.705 510.756 113.175 511.128 98.2653C511.431 86.202 507.705 74.162 496.898 72.832Z" fill="url(#paint1_linear_434_157)"/>
<path d="M321.763 152.529C324.28 148.958 325.071 144.461 323.948 140.232C321.172 129.798 315.853 99.7927 335.46 69.9365C359.744 33.0117 295.807 -19.4631 264.196 42.0012C232.573 103.486 279.711 145.7 292.66 153.074C303.136 159.042 315.492 161.441 321.763 152.529Z" fill="url(#paint2_linear_434_157)"/>
<path d="M180.491 230.107C181.248 234.413 183.875 238.143 187.661 240.321C197.006 245.695 222.004 263.041 229.339 298.018C238.387 341.301 320.588 332.763 299.323 266.984C278.044 201.16 214.942 204.972 200.598 208.993C189.021 212.259 178.596 219.369 180.491 230.107Z" fill="url(#paint3_linear_434_157)"/>
<path d="M369.27 298.26C369.27 298.26 363.238 283.583 380.426 282.207C397.615 280.807 376.234 243.333 417.156 235.657C458.054 227.98 425.517 201.193 461.315 201.193C497.089 201.193 516.397 201.193 516.397 201.193V225.647H474.124C474.124 225.647 454.816 223.08 454.816 236.823C454.816 250.567 479.435 244.29 493.386 244.29C507.337 244.29 499.185 265.477 499.185 265.477H452.022C452.022 265.477 414.384 259.2 414.384 299.707" fill="url(#paint4_linear_434_157)"/>
<path d="M23.8705 341.613H455.282C455.282 341.613 354.457 267.6 298.956 296.23C243.454 324.86 207.936 339.163 161.821 317.487C115.705 295.81 39.778 301.947 23.8705 341.613Z" fill="url(#paint5_linear_434_157)"/>
<path d="M83.8522 289.753C83.8522 289.753 79.1675 286.281 70.973 280.184C62.7698 274.106 64.7875 265.828 71.8793 266.365C78.9855 266.897 78.1167 260.582 67.1381 259.455C56.1365 258.354 45.6706 246.626 56.5202 246.959C67.3699 247.293 70.1223 241.524 58.5765 237.639C47.0108 233.746 37.9015 228.059 43.5298 223.972C49.1581 219.886 61.0909 222.774 51.2958 215.8C41.5063 208.84 32.4004 195.137 47.9125 186.3C63.4246 177.463 69.3173 195.759 68.4623 202.487C67.6073 209.215 71.5529 215.825 74.9063 208.296C78.2596 200.767 85.9394 200.609 83.8194 209.64C81.6937 218.656 79.8326 234.556 84.9371 233.905C90.0416 233.254 85.9521 222.18 91.2705 220.766C96.5889 219.352 96.4152 233.478 92.4102 244.327C88.4109 255.19 93.5866 256.663 96.4707 252.962C99.3548 249.26 105.546 246.823 105.684 255.198C105.821 263.572 105.109 281.983 105.109 281.983L96.7703 286.921" fill="url(#paint6_linear_434_157)"/>
<path d="M47.1402 186.766C47.3813 186.621 47.6368 186.471 47.9067 186.315C63.4213 177.477 69.315 195.775 68.4599 202.503C67.6047 209.232 71.551 215.843 74.9049 208.313C78.2588 200.783 85.9399 200.626 83.8195 209.657C81.6935 218.674 79.8321 234.575 84.9374 233.924C90.0428 233.273 85.9526 222.198 91.2719 220.783C96.5912 219.369 96.4174 233.496 92.4118 244.346C88.4118 255.21 93.5884 256.683 96.4729 252.982C99.3575 249.28 105.55 246.843 105.687 255.218C105.825 263.592 105.113 282.005 105.113 282.005L96.7726 286.943L95.5871 287.211L47.1402 186.766Z" fill="url(#paint7_linear_434_157)"/>
<path d="M97.7548 292.057C97.7548 292.057 102.406 288.541 110.542 282.365C118.687 276.209 116.59 267.951 109.504 268.556C102.403 269.156 103.212 262.833 114.179 261.601C125.16 260.374 135.514 248.546 124.668 248.984C113.822 249.421 111.015 243.679 122.523 239.684C134.045 235.694 143.105 229.905 137.438 225.873C131.771 221.841 119.867 224.843 129.595 217.775C139.317 210.721 148.292 196.931 132.696 188.244C117.101 179.556 111.383 197.908 112.302 204.628C113.221 211.347 109.339 217.995 105.914 210.499C102.489 203.002 94.808 202.918 97.0141 211.928C99.2257 220.923 101.238 236.805 96.128 236.203C91.0176 235.601 95.0012 224.488 89.6696 223.125C84.338 221.762 84.6466 235.886 88.7548 246.696C92.8576 257.52 87.6962 259.043 84.777 255.369C81.8578 251.695 75.6433 249.318 75.586 257.693C75.5288 266.069 76.4163 284.472 76.4163 284.472L84.8015 289.33" fill="url(#paint8_linear_434_157)"/>
<path d="M133.473 188.702C133.23 188.56 132.973 188.412 132.702 188.259C117.104 179.571 111.385 197.924 112.304 204.644C113.224 211.364 109.341 218.012 105.915 210.515C102.49 203.018 94.8075 202.934 97.014 211.945C99.2259 220.941 101.239 236.823 96.1277 236.221C91.0165 235.619 95.0008 224.505 89.6683 223.142C84.3358 221.779 84.6444 235.904 88.7533 246.715C92.8568 257.54 87.6946 259.063 84.7748 255.389C81.8551 251.715 75.6396 249.338 75.5824 257.713C75.5251 266.089 76.4128 284.494 76.4128 284.494L84.7993 289.352L85.9874 289.608L133.473 188.702Z" fill="url(#paint9_linear_434_157)"/>
<path d="M77.2666 283.833C77.2666 283.833 73.7787 278.312 67.6879 268.628C61.5798 258.961 67.0191 251.137 74.1996 254.57C81.3974 258.003 83.0348 251.06 72.0379 245.437C61.0237 239.814 54.8316 223.333 66.0138 228.076C77.196 232.818 82.3907 227.91 71.9129 219.179C61.4178 210.448 54.2077 200.804 61.7241 198.819C69.2405 196.833 80.5236 204.68 73.1164 193.433C65.7093 182.203 61.7316 164.21 81.4708 161.269C101.21 158.327 99.9862 179.812 96.3842 186.489C92.7822 193.166 94.2348 201.664 100.765 195.163C107.296 188.662 115.37 191.608 109.521 200.176C103.671 208.727 95.3255 224.57 100.912 225.958C106.498 227.346 106.694 214.13 112.811 214.807C118.928 215.485 113.056 230.161 104.509 239.863C95.9612 249.583 100.766 253.218 105.265 250.522C109.765 247.826 117.204 247.79 113.974 256.587C110.744 265.384 102.585 284.315 102.585 284.315L91.8985 286.092" fill="url(#paint10_linear_434_157)"/>
<path d="M80.4892 161.446C80.7989 161.393 81.1259 161.339 81.47 161.286C101.21 158.344 99.9859 179.83 96.3838 186.506C92.7817 193.183 94.2344 201.682 100.765 195.181C107.296 188.679 115.37 191.625 109.52 200.193C103.671 208.744 95.3251 224.588 100.912 225.975C106.498 227.363 106.694 214.147 112.811 214.825C118.928 215.503 113.056 230.178 104.508 239.881C95.9608 249.601 100.766 253.235 105.265 250.539C109.765 247.844 117.204 247.808 113.974 256.605C110.744 265.402 102.584 284.333 102.584 284.333L91.898 286.109L90.5537 285.909L80.4892 161.446Z" fill="url(#paint11_linear_434_157)"/>
<path d="M121.024 279.569L58.5471 279.869L68.7812 342.256L112.418 342.047L121.024 279.569Z" fill="url(#paint12_linear_434_157)"/>
<path d="M121.024 279.569L112.401 342.064L68.7639 342.274L67.3802 333.775C96.01 324.684 104.616 298.505 106.989 279.636L121.024 279.569Z" fill="url(#paint13_linear_434_157)"/>
<path d="M318.264 68.5704C318.527 66.4161 317.858 64.2452 316.408 62.6086C314.973 60.9721 312.902 60.0536 310.734 60.0536C277.992 60.0536 161.178 60.0536 131.854 60.0536C128.02 60.0536 124.804 62.9092 124.339 66.7167C121.815 87.4074 114.125 150.448 111.32 173.443C111.057 175.597 111.726 177.768 113.16 179.405C114.594 181.041 116.666 181.96 118.833 181.96C151.575 181.96 268.389 181.96 297.713 181.96C301.548 181.96 304.78 179.104 305.247 175.28C307.767 154.623 315.457 91.5822 318.264 68.5704Z" fill="url(#paint14_linear_434_157)"/>
<path d="M331.738 83.2893C332.001 81.1351 331.332 78.9642 329.881 77.3276C328.43 75.6911 326.375 74.7726 324.208 74.7726C291.466 74.7726 174.652 74.7726 145.328 74.7726C141.493 74.7726 138.278 77.6282 137.813 81.4357C135.289 102.126 127.599 165.167 124.794 188.162C124.531 190.316 125.199 192.487 126.634 194.124C128.068 195.76 130.14 196.679 132.307 196.679C165.049 196.679 281.863 196.679 311.187 196.679C315.021 196.679 318.254 193.823 318.72 189.999C321.24 169.342 328.931 106.301 331.738 83.2893Z" fill="url(#paint15_linear_434_157)"/>
<path d="M415.112 90.4832C415.624 86.2832 412.636 82.8999 408.443 82.8999C369.403 82.8999 191.37 82.8999 152.33 82.8999C150.327 82.8999 148.297 83.6932 146.702 85.1166C145.108 86.5399 144.079 88.4766 143.834 90.4832C140.39 118.717 128.35 217.417 124.906 245.65C124.393 249.85 127.381 253.233 131.551 253.233C170.591 253.233 348.624 253.233 387.664 253.233C391.857 253.233 395.673 249.827 396.183 245.65C399.627 217.417 411.667 118.717 415.112 90.4832Z" fill="url(#paint16_linear_434_157)"/>
<path d="M427.433 148.211C427.696 146.057 427.027 143.886 425.576 142.25C424.142 140.613 422.07 139.695 419.903 139.695C387.161 139.695 270.347 139.695 241.023 139.695C237.188 139.695 233.973 142.55 233.508 146.358C230.984 167.048 223.294 230.089 220.489 253.084C220.226 255.238 220.894 257.409 222.329 259.046C223.763 260.682 225.835 261.601 228.002 261.601C260.744 261.601 377.558 261.601 406.882 261.601C410.716 261.601 413.949 258.745 414.415 254.921C416.935 234.264 424.626 171.223 427.433 148.211Z" fill="url(#paint17_linear_434_157)"/>
<path d="M443.558 157.307C443.82 155.153 443.152 152.982 441.701 151.346C440.267 149.709 438.195 148.791 436.028 148.791C403.286 148.791 286.472 148.791 257.147 148.791C253.313 148.791 250.097 151.646 249.633 155.454C247.109 176.144 239.418 239.185 236.613 262.18C236.35 264.334 237.019 266.505 238.453 268.142C239.887 269.778 241.959 270.697 244.126 270.697C276.868 270.697 393.682 270.697 423.007 270.697C426.841 270.697 430.073 267.841 430.54 264.017C433.062 243.343 440.752 180.303 443.558 157.307Z" fill="url(#paint18_linear_434_157)"/>
<path d="M392.389 107.778C392.53 106.624 392.213 105.518 391.481 104.712C390.788 103.905 389.713 103.447 388.581 103.447C364.975 103.447 251.961 103.447 228.355 103.447C227.224 103.447 226.037 103.905 225.146 104.712C224.256 105.518 223.631 106.624 223.49 107.778C223.432 108.252 223.375 108.727 223.319 109.185C223.178 110.339 223.495 111.446 224.227 112.252C224.92 113.058 225.996 113.517 227.127 113.517C250.733 113.517 363.747 113.517 387.353 113.517C388.484 113.517 389.671 113.058 390.562 112.252C391.49 111.446 392.077 110.339 392.218 109.185C392.276 108.711 392.334 108.237 392.389 107.778Z" fill="url(#paint19_linear_434_157)"/>
<path d="M190.015 223.526C190.136 222.532 189.424 221.73 188.43 221.73C180.438 221.73 148.238 221.73 140.235 221.73C139.24 221.73 138.333 222.532 138.212 223.526C137.662 228.034 136.231 239.764 135.681 244.273C135.559 245.266 136.271 246.069 137.266 246.069C145.258 246.069 177.457 246.069 185.461 246.069C186.455 246.069 187.363 245.266 187.484 244.273C188.029 239.803 189.46 228.073 190.015 223.526Z" fill="url(#paint20_linear_434_157)"/>
<path d="M189.39 216.663C189.24 217.317 188.598 217.807 187.952 217.76C181.151 217.177 146.937 214.26 139.997 213.677C139.673 213.653 139.39 213.49 139.212 213.233C139.034 212.977 138.981 212.65 139.044 212.323C140.54 205.79 147.518 175.317 148.934 169.063C149.08 168.433 149.673 167.967 150.302 167.967C156.988 168.153 191.514 169.087 198.686 169.297C199.035 169.297 199.318 169.46 199.52 169.717C199.722 169.973 199.775 170.3 199.709 170.65C198.165 177.58 190.877 210.013 189.39 216.663Z" fill="url(#paint21_linear_434_157)"/>
<path d="M316.589 199.753C316.882 197.35 315.184 195.421 312.785 195.421C295.829 195.421 234.084 195.421 217.128 195.421C214.729 195.421 212.559 197.366 212.268 199.753C212.21 200.227 212.152 200.701 212.096 201.16C211.803 203.562 213.501 205.491 215.9 205.491C232.856 205.491 294.601 205.491 311.557 205.491C313.956 205.491 316.126 203.547 316.417 201.16C316.473 200.701 316.531 200.227 316.589 199.753Z" fill="url(#paint22_linear_434_157)"/>
<path d="M319.399 176.755C319.692 174.352 317.994 172.424 315.595 172.424C298.639 172.424 236.894 172.424 219.939 172.424C217.54 172.424 215.369 174.368 215.078 176.755C215.02 177.229 214.962 177.704 214.907 178.162C214.613 180.565 216.311 182.493 218.71 182.493C235.666 182.493 297.411 182.493 314.367 182.493C316.766 182.493 318.936 180.549 319.227 178.162C319.283 177.704 319.341 177.229 319.399 176.755Z" fill="url(#paint23_linear_434_157)"/>
<path d="M322.207 153.774C322.5 151.371 320.802 149.442 318.403 149.442C301.447 149.442 239.703 149.442 222.747 149.442C220.348 149.442 218.178 151.387 217.886 153.774C217.828 154.248 217.771 154.722 217.715 155.18C217.422 157.583 219.12 159.512 221.519 159.512C238.474 159.512 300.219 159.512 317.175 159.512C319.574 159.512 321.744 157.567 322.035 155.18C322.093 154.706 322.151 154.232 322.207 153.774Z" fill="url(#paint24_linear_434_157)"/>
<path d="M325.017 130.776C325.31 128.373 323.613 126.445 321.214 126.445C304.258 126.445 242.513 126.445 225.557 126.445C223.158 126.445 220.988 128.389 220.697 130.776C220.639 131.25 220.581 131.724 220.525 132.183C220.232 134.586 221.93 136.514 224.329 136.514C241.285 136.514 303.029 136.514 319.985 136.514C322.384 136.514 324.555 134.57 324.846 132.183C324.904 131.709 324.961 131.234 325.017 130.776Z" fill="url(#paint25_linear_434_157)"/>
<path d="M259.444 215.04C259.501 214.577 259.372 214.113 259.079 213.752C258.785 213.392 258.346 213.237 257.867 213.237C250.196 213.237 220.341 213.237 212.681 213.237C212.202 213.237 211.719 213.443 211.343 213.752C210.962 214.113 210.726 214.525 210.663 215.04C209.966 220.759 207.797 238.532 207.094 244.302C207.037 244.765 207.166 245.229 207.459 245.589C207.753 245.95 208.192 246.105 208.671 246.105C216.342 246.105 246.197 246.105 253.857 246.105C254.336 246.105 254.819 245.899 255.195 245.589C255.576 245.229 255.812 244.817 255.875 244.302C256.579 238.532 258.747 220.759 259.444 215.04Z" fill="url(#paint26_linear_434_157)"/>
<path d="M313.846 213.186C314.783 213.186 315.532 214.01 315.434 214.989C314.306 224.777 313.238 234.513 311.858 244.302C311.713 245.229 310.817 246.053 309.891 246.053C294.768 246.311 279.666 246.311 264.607 246.053C263.698 246.002 262.975 245.229 263.066 244.302C264.075 234.513 265.269 224.725 266.649 214.937C266.794 214.01 267.69 213.186 268.617 213.186C283.717 212.928 298.766 213.186 313.846 213.186ZM268.467 215.04L264.903 244.25H310.034L313.598 215.04C298.55 215.04 283.503 215.04 268.467 215.04Z" fill="url(#paint27_linear_434_157)"/>
<path d="M330.428 171.957H391.906L382.845 246.227H321.366L330.428 171.957Z" fill="url(#paint28_linear_434_157)"/>
<path d="M216.925 98.499L217.203 98.709L217.376 99.0124L217.403 99.3624L199.999 241.812C199.887 242.162 199.887 242.162 199.663 242.466L199.334 242.676L198.975 242.746L198.634 242.676L198.356 242.466L198.184 242.162L198.156 241.812L215.563 99.339C215.676 98.989 215.676 98.989 215.899 98.6857L216.228 98.4757L216.587 98.4057C216.698 98.4524 216.812 98.4757 216.925 98.499Z" fill="url(#paint29_linear_434_157)"/>
<path d="M164.253 101.008C166.258 99.3125 166.828 96.6446 165.524 95.0489C164.22 93.4531 161.537 93.5339 159.532 95.2292C157.526 96.9246 156.957 99.5925 158.26 101.188C159.564 102.784 162.247 102.703 164.253 101.008Z" fill="#FC6161"/>
<path d="M178.489 101.014C180.495 99.3187 181.064 96.6508 179.76 95.0551C178.457 93.4594 175.774 93.5401 173.768 95.2355C171.762 96.9308 171.193 99.5987 172.497 101.194C173.801 102.79 176.484 102.709 178.489 101.014Z" fill="#FFD943"/>
<path d="M192.745 101.004C194.75 99.309 195.32 96.641 194.016 95.0453C192.712 93.4496 190.029 93.5303 188.024 95.2257C186.018 96.921 185.449 99.589 186.752 101.185C188.056 102.78 190.739 102.7 192.745 101.004Z" fill="#39C885"/>
<path d="M340.366 89.03C340.856 88.8667 341.391 88.9367 341.857 89.17C342.3 89.4267 342.649 89.8467 342.765 90.3367C344.046 95.05 347.307 107.183 348.332 110.917C348.495 111.547 348.146 112.177 347.517 112.363C343.301 113.623 328.372 118.057 324.11 119.34C323.807 119.433 323.481 119.387 323.201 119.247C322.922 119.083 322.712 118.827 322.642 118.523C321.524 114.557 317.868 101.513 316.773 97.6167C316.61 96.9867 316.936 96.3567 317.565 96.17C321.524 94.9333 335.312 90.6167 340.366 89.03Z" fill="url(#paint30_linear_434_157)"/>
<path d="M212.422 55.7567C212.655 55.7801 212.701 55.7801 212.818 55.8267C213.167 55.9201 213.47 56.1534 213.703 56.4567L218.803 63.4801C219.642 64.6934 218.245 66.8167 216.661 65.9534C216.451 65.8367 216.242 65.6734 216.102 65.4634L211.001 58.4401C210.279 57.4134 210.978 55.8034 212.352 55.7801C212.375 55.7567 212.399 55.7567 212.422 55.7567Z" fill="#FFC587"/>
<path d="M228.292 68.7533C228.292 68.7533 220.49 73.2567 217.089 75.24C216.181 75.7533 215.785 76.8733 216.158 77.8533C217.043 80.1633 218.487 84.0133 218.487 84.0133H211.337L213.735 81.26C213.735 81.26 211.383 76.6633 210.102 74.1433C209.636 73.2333 209.893 72.1133 210.708 71.4833C213.27 69.5 218.487 65.4867 218.487 65.4867" fill="url(#paint31_linear_434_157)"/>
<path d="M222.982 66.21L221.678 79.7433C221.678 79.7433 221.887 84.9233 227.081 82.87C232.275 80.8167 235.536 80.6533 235.536 80.6533L236.793 84.0833L237.702 76.7333L229.2 78.11L229.713 67.7967" fill="url(#paint32_linear_434_157)"/>
<path d="M217.523 50.2034C218.804 50.2734 219.642 51.9534 218.687 53.0268L213.586 58.5801C212.445 59.7701 209.441 58.2068 211.118 56.2934L216.218 50.7401C216.568 50.3901 216.801 50.1801 217.523 50.2034Z" fill="url(#paint33_linear_434_157)"/>
<path d="M219.15 48.8476L221.013 48.451L221.665 45.6276L220.454 40.3776L219.15 41.1243L218.684 40.0976C218.684 40.0976 212.139 42.8043 210.928 41.8709C210.695 43.4109 210.066 45.6276 213.443 45.7209" fill="url(#paint34_linear_434_157)"/>
<path d="M340.249 107.031L343.394 105.387L341.293 101.35L338.148 102.994L340.249 107.031Z" fill="#FFC587"/>
<path d="M332.571 98.5389L334.189 102.595C334.189 102.595 335.5 105.793 338.845 104.02C342.177 102.23 339.956 100.679 339.671 100.205C339.382 99.7605 337.33 97.9891 336.788 97.6476" fill="#FFC587"/>
<path d="M338.678 104.563C338.678 104.563 341.574 103.959 342.338 101.54C342.105 97.8525 341.523 94.6621 339.792 95.0403C339.561 94.078 338.816 92.7055 336.827 93.3914C334.838 94.0772 330.842 95.9878 329.897 95.1819C329.897 95.1819 330.816 100.334 332.588 99.3771C335.122 99.7805 336.038 99.9809 336.038 99.9809C336.038 99.9809 336.406 99.3698 337.021 99.5335C337.637 99.6972 338.323 101.587 336.969 101.722L337.859 104.218C337.876 104.206 338.123 104.732 338.678 104.563Z" fill="url(#paint35_linear_434_157)"/>
<path d="M345.584 97.5467C346.748 97.5933 347.75 98.62 347.726 99.8333C347.633 101.723 347.889 103.87 346.818 104.873C345.607 106.017 343.068 105.153 343.115 103.193C343.208 101.397 342.905 99.25 343.977 98.1767C344.419 97.7567 344.862 97.5467 345.584 97.5467Z" fill="#FFC587"/>
<path d="M345.374 101.07C346.562 101.117 347.54 102.19 347.493 103.403L347.191 108.303C347.074 109.727 345.421 110.753 344.116 110.17C343.301 109.82 342.765 108.933 342.812 108.023L343.115 103.123C343.208 102.027 344.14 101.117 345.234 101.07C345.304 101.07 345.304 101.07 345.374 101.07Z" fill="url(#paint36_linear_434_157)"/>
<path d="M322.27 106.577C322.549 106.6 322.596 106.6 322.712 106.647C323.784 106.903 324.645 107.65 325.67 108.14C327.696 109.073 329.886 109.75 332.122 109.843C332.122 109.843 333.589 110.077 334.055 111.173C334.614 112.48 333.589 114.23 332.052 114.23C328.442 114.253 324.529 112.69 321.268 110.8C319.661 109.867 319.615 106.74 322.06 106.6C322.153 106.577 322.2 106.577 322.27 106.577Z" fill="#FFC587"/>
<path d="M345.932 129.275L350.337 144.039L352.256 153.004L356.156 152.452L353.317 126.393" fill="url(#paint37_linear_434_157)"/>
<path d="M348.937 128.533L346.632 143.77L345.979 152.917H342.043L341.228 126.713" fill="url(#paint38_linear_434_157)"/>
<path d="M165.883 248.29L143.726 341.969" stroke="url(#paint39_linear_434_157)" stroke-width="7.79645" stroke-miterlimit="1.4142" stroke-linecap="round" stroke-linejoin="bevel"/>
<path d="M178.416 248.29L156.26 341.969" stroke="url(#paint40_linear_434_157)" stroke-width="7.79645" stroke-miterlimit="1.4142" stroke-linecap="round" stroke-linejoin="bevel"/>
<path d="M165.443 251.512H177.168" stroke="url(#paint41_linear_434_157)" stroke-width="7.71707" stroke-miterlimit="1.4142" stroke-linecap="round" stroke-linejoin="bevel"/>
<path d="M163.422 260.057H175.148" stroke="url(#paint42_linear_434_157)" stroke-width="7.71707" stroke-miterlimit="1.4142" stroke-linecap="round" stroke-linejoin="bevel"/>
<path d="M161.395 268.626H173.121" stroke="url(#paint43_linear_434_157)" stroke-width="7.71707" stroke-miterlimit="1.4142" stroke-linecap="round" stroke-linejoin="bevel"/>
<path d="M159.374 277.17H171.1" stroke="url(#paint44_linear_434_157)" stroke-width="7.71707" stroke-miterlimit="1.4142" stroke-linecap="round" stroke-linejoin="bevel"/>
<path d="M157.354 285.715H169.079" stroke="url(#paint45_linear_434_157)" stroke-width="7.71707" stroke-miterlimit="1.4142" stroke-linecap="round" stroke-linejoin="bevel"/>
<path d="M155.333 294.259H167.058" stroke="url(#paint46_linear_434_157)" stroke-width="7.71707" stroke-miterlimit="1.4142" stroke-linecap="round" stroke-linejoin="bevel"/>
<path d="M153.312 302.804H165.037" stroke="url(#paint47_linear_434_157)" stroke-width="7.71707" stroke-miterlimit="1.4142" stroke-linecap="round" stroke-linejoin="bevel"/>
<path d="M151.291 311.348H163.016" stroke="url(#paint48_linear_434_157)" stroke-width="7.71707" stroke-miterlimit="1.4142" stroke-linecap="round" stroke-linejoin="bevel"/>
<path d="M149.264 319.917H160.989" stroke="url(#paint49_linear_434_157)" stroke-width="7.71707" stroke-miterlimit="1.4142" stroke-linecap="round" stroke-linejoin="bevel"/>
<path d="M147.243 328.462H158.968" stroke="url(#paint50_linear_434_157)" stroke-width="7.71707" stroke-miterlimit="1.4142" stroke-linecap="round" stroke-linejoin="bevel"/>
<path d="M145.222 337.006H156.948" stroke="url(#paint51_linear_434_157)" stroke-width="7.71707" stroke-miterlimit="1.4142" stroke-linecap="round" stroke-linejoin="bevel"/>
<path d="M162.93 235.021L167.075 234.915L166.946 229.83L162.801 229.936L162.93 235.021Z" fill="#FFC587"/>
<path d="M168.855 221.703L170.019 226.557C170.019 226.557 170.904 230.407 166.619 230.967C162.333 231.503 163.381 228.587 163.335 227.957C163.311 227.35 164.057 224.34 164.336 223.663" fill="#FFC587"/>
<path d="M182.084 216.593C183.411 216.71 184.413 218.133 183.947 219.44C183.947 219.463 183.924 219.487 183.924 219.533L179.522 230.103C178.776 231.783 175.655 231.643 175.446 229.473C175.422 229.217 175.446 228.96 175.516 228.727C175.539 228.633 175.562 228.54 175.609 228.47L180.011 217.9C180.127 217.62 180.197 217.55 180.29 217.41C180.686 216.873 181.199 216.593 182.014 216.593C182.014 216.593 182.037 216.593 182.084 216.593Z" fill="#FFC587"/>
<path d="M151.596 238.433C151.852 238.457 151.922 238.457 152.062 238.503C152.574 238.643 152.97 238.877 153.32 239.437L158.118 247.207C158.956 248.607 157.628 250.73 155.928 250.403C155.346 250.287 154.834 249.937 154.508 249.423L149.71 241.653C148.964 240.37 149.826 238.457 151.503 238.41C151.55 238.433 151.573 238.433 151.596 238.433Z" fill="#FFC587"/>
<path d="M159.794 234.747C161.634 234.863 162.706 237.757 160.656 238.76C160.633 238.783 160.61 238.783 160.586 238.807L152.435 242.493C150.734 243.217 148.568 241.023 149.873 239.297C150.012 239.11 150.199 238.923 150.408 238.783C150.502 238.713 150.595 238.667 150.688 238.62L158.84 234.933C159.072 234.84 159.119 234.817 159.235 234.793C159.375 234.77 159.468 234.747 159.794 234.747Z" fill="url(#paint52_linear_434_157)"/>
<path d="M164.01 291.12L166.549 294.457C166.549 294.457 164.499 295.693 162.473 294.76C160.423 293.827 159.911 290.607 159.911 290.607" fill="url(#paint53_linear_434_157)"/>
<path d="M160.416 278.436L162.954 281.772C162.954 281.772 160.905 283.009 158.878 282.076C156.829 281.142 156.317 277.922 156.317 277.922" fill="url(#paint54_linear_434_157)"/>
<path d="M152.97 257.403C152.97 257.403 151.107 262.07 152.97 266.597C154.88 269.07 155.742 268.907 156.138 270.703C157.209 275.37 156.138 279.01 156.138 279.01L160.843 279.78V259.433" fill="url(#paint55_linear_434_157)"/>
<path d="M160.237 258.57L159.468 292.31C159.468 292.31 162.333 294.317 164.732 291.54L169.204 260.343" fill="url(#paint56_linear_434_157)"/>
<path d="M295.184 286.63L296.232 279.233C296.232 279.233 298.165 272.98 292.738 272.35C287.312 271.72 284.563 273.587 284.424 277.553C284.424 277.553 279.882 278.93 281.559 283.643C281.559 283.643 277.297 285.533 281.046 289.85C281.046 289.85 277.436 294.05 282.723 296.593C282.723 296.593 286.287 301.167 290.293 297.037" fill="url(#paint57_linear_434_157)"/>
<path d="M298.119 296.95C298.678 296.996 298.724 297.113 298.887 297.253C299.307 297.603 299.493 298.093 299.33 298.7L296.465 307.963C296.046 309.223 293.344 309.036 293.88 307.146L296.745 297.883C296.815 297.673 296.838 297.65 296.884 297.556C297.141 297.16 297.49 296.926 298.072 296.926C298.072 296.95 298.096 296.95 298.119 296.95Z" fill="#FFC587"/>
<path d="M294.822 285.44C295.102 285.455 295.196 285.476 295.337 285.518C295.924 285.689 296.376 286.026 296.63 286.742L300.062 296.892C300.549 298.466 298.339 300.256 296.924 298.848C296.781 298.712 296.659 298.529 296.561 298.345C296.512 298.277 296.486 298.184 296.46 298.091L293.028 287.941C292.925 287.594 292.922 287.478 292.939 287.244C292.959 286.309 293.797 285.469 294.822 285.44Z" fill="url(#paint58_linear_434_157)"/>
<path d="M292.126 304.863C292.126 304.863 291.288 306.94 291.218 309.903C291.148 312.867 293.733 324.347 293.733 324.347L294.362 341.66H300.068L296.691 339.023C296.691 339.023 298.252 328.36 298.787 324.837C298.904 324.09 298.927 323.343 298.904 322.597C298.741 318.56 298.205 304.98 298.205 304.98" fill="#FFC587"/>
<path d="M294.642 338.883H297.064L300.464 341.637H293.966V338.907L294.642 338.883Z" fill="url(#paint59_linear_434_157)"/>
<path d="M291.814 314.85C292.419 314.547 294.003 313.753 295.051 313.567C295.89 313.427 297.357 313.753 298.568 314.383L298.847 321.383L292.722 319.587C292.419 318.07 292.093 316.39 291.814 314.85Z" fill="url(#paint60_linear_434_157)"/>
<path d="M287.575 304.863C287.575 304.863 286.736 306.94 286.666 309.903C286.597 312.867 289.182 324.347 289.182 324.347L289.811 341.66H295.517L292.14 339.023L294.399 323.717L293.654 304.98" fill="#FFC587"/>
<path d="M287.435 315.953C288.04 315.649 289.624 314.856 290.672 314.669C291.511 314.529 292.978 314.856 294.189 315.486L294.469 322.486L288.343 320.689C288.04 319.173 287.714 317.493 287.435 315.953Z" fill="url(#paint61_linear_434_157)"/>
<path d="M298.056 305.12L300.687 316.693C300.687 316.693 294.725 320.427 286.224 316.973C286.41 315.69 286.853 314.477 286.736 313.31C286.061 307.243 287.854 304.957 287.854 304.957" fill="url(#paint62_linear_434_157)"/>
<path d="M305.547 288.671C305.198 288.647 304.871 288.881 304.778 289.207C304.243 291.097 302.519 297.047 301.867 299.357C301.797 299.567 301.844 299.824 301.983 300.011C302.123 300.197 302.333 300.314 302.566 300.314C304.918 300.431 311.02 300.734 312.907 300.827C313.233 300.851 313.536 300.641 313.652 300.314C314.281 298.517 316.307 292.637 317.122 290.327C317.192 290.117 317.169 289.861 317.029 289.651C316.889 289.464 316.68 289.324 316.447 289.324C313.955 289.207 307.527 288.811 305.547 288.671Z" fill="url(#paint63_linear_434_157)"/>
<path d="M291.017 285.077C291.017 285.077 296.108 284.26 296.275 291.283C296.44 298.33 297.459 297.443 297.459 297.443L298.137 306.1H286.652L288.594 298.587C288.617 298.587 282.919 287.853 291.017 285.077Z" fill="url(#paint64_linear_434_157)"/>
<path d="M288.799 286.057C289.079 286.08 289.172 286.103 289.312 286.15C289.894 286.337 290.337 286.687 290.569 287.41L293.714 297.653C294.156 299.24 291.897 300.967 290.523 299.52C290.383 299.38 290.267 299.193 290.174 299.007C290.127 298.937 290.104 298.843 290.08 298.75L286.936 288.507C286.843 288.157 286.843 288.04 286.866 287.807C286.913 286.85 287.775 286.057 288.799 286.057Z" fill="url(#paint65_linear_434_157)"/>
<path d="M303.449 292.45C305.103 292.613 306.011 295.343 304.008 296.113C303.985 296.137 303.938 296.137 303.915 296.137L292.479 299.987C291.082 300.43 289.498 298.867 290.127 297.42C290.337 296.93 290.756 296.557 291.268 296.37L302.704 292.52C302.96 292.473 303.193 292.427 303.449 292.45Z" fill="#FFC587"/>
<path d="M295.796 278.9L295.331 282.533C295.331 282.533 295.316 284.484 292.236 284.51C289.179 284.54 288.111 283.156 288.042 281.313C288.042 281.313 289.262 281.14 289.329 278.962C290.689 279.16 292.48 278.568 292.757 276.581C293.39 278.426 295.127 279.167 295.796 278.9Z" fill="#FFC587"/>
<path d="M290.09 338.883H292.512L295.913 341.637H289.415V338.907L290.09 338.883Z" fill="url(#paint66_linear_434_157)"/>
<path d="M164.686 232.927C164.686 232.927 160.121 232.157 157.698 238.41C155.276 244.663 151.946 259.503 151.946 259.503C151.946 259.503 158.164 264.777 169.949 260.88V240.347C169.949 240.347 171.975 232.787 164.686 232.927Z" fill="url(#paint67_linear_434_157)"/>
<path d="M177.588 227.163C179.219 227.257 180.313 229.427 179.032 230.78L170.857 239.133C169.693 240.277 167.317 239.507 167.224 237.757C167.201 237.173 167.434 236.59 167.83 236.17L176.028 227.817C176.424 227.42 176.843 227.21 177.519 227.187C177.542 227.163 177.565 227.163 177.588 227.163Z" fill="url(#paint68_linear_434_157)"/>
<path d="M167.108 231.363C167.108 231.363 164.01 232.717 161.704 230.967C159.492 227.373 157.931 224.013 159.794 223.22C159.375 222.17 159.166 220.397 161.471 219.72C163.777 219.043 168.761 218.18 169.111 216.803C169.111 216.803 171.649 222.217 169.367 222.497C167.271 224.55 166.549 225.343 166.549 225.343C166.549 225.343 165.803 225.017 165.338 225.577C164.872 226.137 165.477 228.353 166.828 227.583L167.643 230.5C167.643 230.523 167.76 231.177 167.108 231.363Z" fill="url(#paint69_linear_434_157)"/>
<path d="M340.413 128.767C340.413 128.767 341.228 120.693 340.413 116.33C339.598 111.967 337.292 105.293 342.952 103.8C348.611 102.307 353.223 117.8 354.131 128.417C354.131 128.44 344.675 131.333 340.413 128.767Z" fill="url(#paint70_linear_434_157)"/>
<path d="M338.969 107.463C340.087 106.367 342.253 106.88 342.672 108.467C343.022 109.867 341.624 111.173 340.134 112.107C337.711 113.647 334.753 114.393 331.912 114.207C331.819 114.207 331.749 114.183 331.656 114.183C329.956 113.857 329.21 111.033 331.05 110.077C331.959 109.61 333.17 109.89 334.311 109.703C336.011 109.423 337.758 108.793 338.922 107.533C338.899 107.533 338.946 107.487 338.969 107.463Z" fill="url(#paint71_linear_434_157)"/>
<path d="M218.161 49.5967C217.276 49.5967 216.53 50.2967 216.437 51.1833C216.088 54.5667 215.412 62.6167 216.624 66.91C223.681 68.03 227.407 68.6133 229.387 68.9167C229.853 68.9867 230.295 68.8 230.598 68.4267C230.877 68.0533 230.947 67.5633 230.761 67.1433C229.433 63.9467 226.871 57.8333 224.845 53.68C223.611 51.16 221.025 49.55 218.207 49.5967C218.184 49.5967 218.184 49.5967 218.161 49.5967Z" fill="url(#paint72_linear_434_157)"/>
<path d="M213.304 43.9243C213.304 43.9243 213.374 48.3109 215.656 49.8509C217.915 51.391 220.361 49.9676 220.547 47.7276C221.246 47.6109 221.455 43.8776 220.035 45.3243C217.333 45.0443 217.286 44.5309 217.799 43.2476C216.355 43.9709 214.468 45.3009 213.304 43.9243Z" fill="#FFC587"/>
<path d="M222.143 50.4133C222.376 50.4367 222.516 50.4367 222.842 50.6L232.461 55.3833C233.742 56.06 233.533 58.6267 231.669 58.58C231.506 58.58 231.343 58.5567 231.203 58.4867C231.134 58.4633 231.064 58.44 230.994 58.3933L221.375 53.61C220.117 52.9567 220.234 50.53 222.004 50.4367C222.027 50.4133 222.074 50.4133 222.143 50.4133Z" fill="url(#paint73_linear_434_157)"/>
<path d="M231.786 55.22C232.81 55.29 233.602 56.3633 233.3 57.4133L230.668 65.58C230.179 67.0033 227.617 67.05 227.407 65.2767C227.384 65.0433 227.407 64.7867 227.477 64.5533L230.109 56.3867C230.179 56.1533 230.225 56.1067 230.295 55.99C230.598 55.5 231.04 55.2433 231.716 55.22C231.739 55.22 231.762 55.22 231.786 55.22Z" fill="#FFC587"/>
<path d="M348.961 155.32H334.288C333.938 155.25 333.938 155.25 333.635 155.04L333.426 154.737L333.356 154.387V130.003C333.379 126.667 336.244 123.633 339.691 123.587C365.846 123.423 392.002 123.423 418.157 123.587C421.488 123.657 424.469 126.527 424.492 130.003V154.41C424.422 154.76 424.422 154.76 424.213 155.063L423.91 155.273L423.56 155.343H411.193V156.23C411.147 156.953 410.215 157.42 409.656 156.907C409.493 156.743 409.4 156.627 409.377 156.23V155.343H396.101V156.23C396.054 156.977 395.099 157.42 394.564 156.907C394.401 156.743 394.308 156.627 394.284 156.23V155.343H381.009V156.23C380.892 158.19 379.215 157.047 379.169 156.23V155.343H365.893V156.23C365.823 157.443 365.101 157.28 364.612 157.07C364.286 156.93 364.076 156.58 364.053 156.23V155.343H350.777V156.23C350.731 157.047 350.358 157.07 350.009 157.14C349.496 157.233 348.961 156.79 348.937 156.23V155.32H348.961ZM348.961 125.407C345.91 125.407 342.835 125.407 339.784 125.407C337.385 125.43 335.219 127.507 335.196 130.003V153.477H348.961V125.407ZM364.076 125.383C359.651 125.383 355.226 125.407 350.801 125.407V153.477H364.076V125.383ZM379.169 125.36C374.743 125.36 370.318 125.383 365.893 125.383V153.477H379.169V125.36ZM394.284 125.337C389.859 125.337 385.434 125.337 381.009 125.337V153.453H394.284V125.337ZM396.124 125.337V153.477H409.4V125.383C404.951 125.36 400.526 125.36 396.124 125.337ZM411.216 125.383V153.477H422.675C422.675 145.637 422.722 137.797 422.675 129.957C422.629 127.6 420.579 125.477 418.157 125.43C415.851 125.407 413.522 125.383 411.216 125.383Z" fill="url(#paint74_linear_434_157)"/>
<path d="M369.747 170.347H381.279L432.04 233.347H420.508L369.747 170.347Z" fill="url(#paint75_linear_434_157)"/>
<path d="M378.423 181.103L369.736 170.323H381.265L388.951 179.867C384.153 178.793 380.752 179.703 378.423 181.103Z" fill="url(#paint76_linear_434_157)"/>
<path d="M482.486 231.923V240.93L420.067 237.407L427.799 228.843L482.486 231.923Z" fill="url(#paint77_linear_434_157)"/>
<path d="M383.595 169.13H388.316L439.077 232.13H434.356L383.595 169.13Z" fill="url(#paint78_linear_434_157)"/>
<path d="M392.374 180.007L383.594 169.11H388.322L396.613 179.4C394.983 179.4 393.586 179.633 392.374 180.007Z" fill="url(#paint79_linear_434_157)"/>
<path d="M482.486 225.67V229.357L428.452 226.3L431.619 222.8L482.486 225.67Z" fill="url(#paint80_linear_434_157)"/>
<path d="M355.623 174.166L408.027 174.038L408.004 164.821L355.6 164.95L355.623 174.166Z" fill="url(#paint81_linear_434_157)"/>
<path d="M352.92 179.05C357.692 179.05 361.561 175.174 361.561 170.393C361.561 165.612 357.692 161.737 352.92 161.737C348.148 161.737 344.279 165.612 344.279 170.393C344.279 175.174 348.148 179.05 352.92 179.05Z" fill="url(#paint82_linear_434_157)"/>
<path d="M408.661 179.05C413.434 179.05 417.302 175.174 417.302 170.393C417.302 165.612 413.434 161.737 408.661 161.737C403.889 161.737 400.021 165.612 400.021 170.393C400.021 175.174 403.889 179.05 408.661 179.05Z" fill="url(#paint83_linear_434_157)"/>
<path d="M426.821 153.663C426.821 153.08 426.588 152.497 426.169 152.077C425.75 151.657 425.191 151.423 424.585 151.423C411.566 151.423 345.397 151.423 332.378 151.423C331.796 151.423 331.213 151.657 330.794 152.077C330.375 152.497 330.142 153.057 330.142 153.663C330.142 156.837 330.142 162.67 330.142 165.843C330.142 166.427 330.375 167.01 330.794 167.43C331.213 167.85 331.772 168.083 332.378 168.083C345.397 168.083 411.566 168.083 424.585 168.083C425.168 168.083 425.75 167.85 426.169 167.43C426.588 167.01 426.821 166.45 426.821 165.843C426.821 162.67 426.821 156.86 426.821 153.663Z" fill="#E8D66B"/>
<path d="M331.697 167.267C331.697 167.057 331.766 166.87 331.906 166.707C333.63 164.747 345.252 151.447 345.252 151.447H351.89L337.31 168.083C337.31 168.083 334.072 168.083 332.512 168.083C332.302 168.083 332.069 167.99 331.93 167.85C331.766 167.687 331.697 167.477 331.697 167.267ZM355.756 168.083H349.118L363.698 151.447H370.336L355.756 168.083ZM374.179 168.083H367.541L382.121 151.447H388.759L374.179 168.083ZM392.602 168.083H385.964L400.544 151.447H407.181L392.602 168.083ZM411.048 168.083H404.41L418.99 151.447H425.628L411.048 168.083Z" fill="black"/>
<path d="M256.103 334.951C268.927 334.951 279.323 324.536 279.323 311.688C279.323 298.84 268.927 288.425 256.103 288.425C243.278 288.425 232.882 298.84 232.882 311.688C232.882 324.536 243.278 334.951 256.103 334.951Z" fill="url(#paint84_linear_434_157)"/>
<path d="M248.602 268.417V315.293H209.357V293.453" fill="#82BDDE"/>
<path d="M370.913 273.704V320.58H331.691V298.74" fill="#82BDDE"/>
<path d="M349.352 317.139C362.176 317.139 372.572 306.724 372.572 293.876C372.572 281.028 362.176 270.612 349.352 270.612C336.527 270.612 326.131 281.028 326.131 293.876C326.131 306.724 336.527 317.139 349.352 317.139Z" fill="url(#paint85_linear_434_157)"/>
<path d="M23.4876 337.42C36.3121 337.42 46.7084 327.005 46.7084 314.157C46.7084 301.309 36.3121 290.894 23.4876 290.894C10.6632 290.894 0.266907 301.309 0.266907 314.157C0.266907 327.005 10.6632 337.42 23.4876 337.42Z" fill="url(#paint86_linear_434_157)"/>
<path d="M406.823 325.658C419.647 325.658 430.044 315.242 430.044 302.394C430.044 289.546 419.647 279.131 406.823 279.131C393.998 279.131 383.602 289.546 383.602 302.394C383.602 315.242 393.998 325.658 406.823 325.658Z" fill="url(#paint87_linear_434_157)"/>
<path d="M208.821 268.067H248.415C248.415 268.067 253.562 312.867 232.997 312.867C194.265 312.867 194.055 311.373 194.055 311.373C194.055 311.373 213.316 296.16 208.821 268.067Z" fill="#E8D66B"/>
<path d="M331.132 273.354H370.726C370.726 273.354 375.873 318.154 355.308 318.154C316.576 318.154 316.366 316.66 316.366 316.66C316.366 316.66 335.627 301.424 331.132 273.354Z" fill="#E8D66B"/>
<path d="M212.641 300.477C214.76 300.5 216.693 302.063 218.58 303.067C219.092 303.347 219.558 303.767 220.14 303.813C221.258 303.883 222.33 303.417 223.471 303.277C223.797 303.23 224.123 303.207 224.449 303.183C226.336 302.997 228.199 302.903 230.085 302.693C230.551 302.647 231.04 302.623 231.506 302.67C233.463 302.95 235.023 304.84 237.143 304.607C237.212 304.607 237.282 304.583 237.352 304.583C237.399 304.583 237.445 304.56 237.469 304.56C237.515 304.56 237.538 304.537 237.585 304.537C237.608 304.537 237.632 304.513 237.655 304.513C237.795 304.443 237.958 304.327 237.958 304.163C237.958 304.163 237.981 304.023 238.051 303.953C238.284 303.743 238.796 304.093 238.4 304.653C237.934 305.353 236.816 305.33 235.931 305.12C234.324 304.723 232.997 303.44 231.343 303.253C230.202 303.137 229.037 303.44 227.826 303.51C225.707 303.65 223.564 303.813 221.491 304.257C220.653 304.42 219.768 304.513 219.069 304.07C218.766 303.883 218.487 303.65 218.137 303.487C217.928 303.37 217.881 303.347 217.788 303.3C216.297 302.483 214.923 301.363 213.246 301.083C211.802 300.85 210.312 301.433 208.891 301.853C208.425 301.993 208.192 301.503 208.588 301.34C208.681 301.317 208.775 301.27 208.891 301.247C210.102 300.873 211.313 300.453 212.641 300.477ZM215.878 293.71C218.44 293.757 220.56 295.833 223.215 296.043C225.497 296.207 227.756 295.6 230.039 295.133C231.506 294.853 232.88 296.09 234.091 296.44C234.697 296.627 235.372 296.58 236.025 296.58C236.094 296.58 236.094 296.58 236.164 296.58C237.049 296.557 237.934 296.37 238.75 296.09C238.75 296.09 238.68 295.67 239.215 295.717C239.495 295.74 239.774 295.903 239.635 296.207C239.518 296.487 239.169 296.557 238.889 296.65C237.469 297.163 235.931 297.303 234.464 297.117C232.95 296.907 231.856 295.367 230.155 295.693C229.55 295.81 228.968 295.95 228.362 296.067C226.289 296.51 224.123 296.953 222.027 296.417C219.814 295.857 217.928 294.2 215.645 294.27C214.271 294.317 212.944 294.83 211.663 295.297C211.337 295.413 211.01 295.553 210.778 295.787C210.778 295.787 210.638 295.88 210.521 295.857C210.312 295.81 210.219 295.53 210.382 295.367C210.405 295.32 210.684 295.11 210.917 294.993C211.337 294.783 211.802 294.643 212.245 294.48C212.501 294.387 212.524 294.387 212.641 294.34C213.666 293.967 214.76 293.71 215.878 293.71ZM214.527 287.247C216.018 287.27 217.602 287.83 218.533 288.833C218.999 289.323 219.372 289.86 220.164 289.953C221.608 290.14 223.098 289.93 224.472 289.37C225.637 288.903 226.801 288.32 228.036 288.25C230.575 288.087 232.834 290.537 235.535 290.397C238.004 290.257 240.17 288.273 242.01 288.087C242.127 288.087 242.266 288.087 242.266 288.087C242.476 288.157 242.36 288.087 242.453 288.25L242.476 288.367C242.476 288.483 242.546 288.437 242.36 288.6L241.707 288.903C241.498 288.973 241.451 288.927 241.358 288.833C241.312 288.857 241.242 288.88 241.195 288.903C240.939 289.02 240.683 289.137 240.426 289.277C238.214 290.42 235.838 291.493 233.346 290.653C231.413 290 229.62 288.577 227.756 288.833C226.452 289.02 225.264 289.72 224.03 290.117C222.586 290.583 220.979 290.77 219.605 290.397C218.72 290.163 218.254 289.137 217.509 288.693C217.415 288.647 217.322 288.577 217.229 288.53C215.506 287.573 213.2 287.317 211.569 288.927C211.569 288.927 211.36 289.067 211.197 288.95C210.894 288.74 211.313 288.297 211.779 287.97C212.548 287.433 213.456 287.153 214.388 287.13C214.457 287.247 214.457 287.247 214.527 287.247ZM217.648 281.227C218.953 281.25 220.094 282.137 221.235 282.86C221.794 283.21 222.4 283.537 223.075 283.63C225.497 284.003 227.733 282.183 230.272 282.44C232.042 282.627 233.579 283.723 235.372 283.91C237.492 284.12 239.611 283.443 241.498 282.65C241.498 282.65 241.544 282.323 242.15 282.16C242.36 282.113 242.662 282.09 242.756 282.393C242.849 282.743 242.429 282.907 241.987 283.07C239.239 284.167 236.281 285.03 233.509 284.073C232.112 283.583 230.784 282.883 229.294 283.023C226.825 283.257 224.426 284.913 222.027 283.933C220.583 283.35 219.488 281.903 217.835 281.81C216.414 281.717 214.993 282.16 213.666 282.603C213.34 282.72 213.013 282.837 212.711 282.977L212.431 283.07C212.361 283.047 212.408 283.093 212.268 282.977L212.198 282.837C212.175 282.627 212.082 282.673 212.361 282.487C213.153 282.02 214.108 281.833 215.04 281.6C215.901 281.39 216.763 281.203 217.648 281.227ZM241.87 275.743C242.08 275.767 242.266 275.907 242.243 276.14C242.197 276.49 241.707 276.77 241.544 276.397C240.706 276.63 239.914 277.003 239.099 277.377C239.006 277.423 239.006 277.423 238.936 277.447C237.119 278.217 235.046 278.497 233.16 278.1C232.251 277.913 231.576 277.167 230.621 277.12C227.756 276.98 225.101 279.127 222.213 278.823C220.583 278.637 219.046 277.867 217.718 277.213C216.67 276.723 215.412 277.26 214.248 277.727C214.248 277.727 214.015 277.867 213.852 277.797C213.642 277.727 213.619 277.377 213.852 277.26C213.945 277.213 214.038 277.19 214.131 277.143C215.203 276.7 216.274 276.163 217.439 276.467C218.044 276.63 218.557 277.003 219.139 277.213C220.397 277.703 221.654 278.287 223.005 278.263C224.985 278.193 226.708 277.073 228.665 276.677C229.55 276.513 230.481 276.42 231.297 276.607C232.158 276.817 232.764 277.447 233.719 277.587C235.792 277.843 237.865 277.283 239.774 276.443C240.473 276.117 241.242 275.72 241.87 275.743ZM235.466 270.423C237.678 270.447 239.704 271.94 241.87 271.893C242.453 271.87 243.151 271.917 243.501 271.567C243.501 271.567 243.71 271.427 243.873 271.543C244.037 271.66 244.013 271.917 243.827 272.057C243.198 272.547 242.22 272.5 241.451 272.477C239.239 272.383 237.259 270.867 235.116 271.03C233.067 271.17 231.32 272.897 229.084 272.803C227.477 272.733 226.01 271.707 224.449 272.173C224.309 272.22 224.146 272.267 224.007 272.313C222.609 272.85 221.328 273.923 219.791 273.783C218.394 273.643 217.485 272.267 216.274 271.87C215.343 271.567 214.341 271.777 213.409 271.87C213.316 271.87 213.107 271.87 213.013 271.73C212.92 271.567 213.037 271.333 213.246 271.31C213.363 271.31 213.363 271.31 213.456 271.287C213.712 271.263 213.945 271.24 214.201 271.193C215.133 271.1 216.111 271.1 216.926 271.497C218.091 272.08 218.929 273.433 220.397 273.13C222.143 272.78 223.657 271.333 225.521 271.427C226.825 271.497 228.059 272.243 229.317 272.197C231.297 272.127 233.043 270.493 235.256 270.4C235.326 270.423 235.396 270.423 235.466 270.423ZM212.618 271.543C212.92 271.567 213.013 272.033 212.594 272.15C212.408 272.197 212.222 272.313 212.059 272.43C211.942 272.5 212.035 272.43 211.919 272.547C211.732 272.687 211.43 272.547 211.43 272.313C211.43 271.87 212.105 271.543 212.618 271.543Z" fill="black"/>
<path d="M334.952 305.74C337.071 305.764 339.004 307.327 340.891 308.33C341.403 308.61 341.869 309.03 342.451 309.077C343.569 309.147 344.641 308.68 345.782 308.54C346.108 308.494 346.434 308.47 346.76 308.447C348.647 308.26 350.51 308.167 352.397 307.957C352.862 307.91 353.351 307.887 353.817 307.934C355.774 308.214 357.334 310.104 359.454 309.87C359.523 309.87 359.593 309.847 359.663 309.847C359.71 309.847 359.756 309.824 359.78 309.824C359.826 309.824 359.85 309.8 359.896 309.8C359.919 309.8 359.943 309.777 359.966 309.777C360.106 309.707 360.269 309.59 360.269 309.427C360.269 309.427 360.292 309.287 360.362 309.217C360.595 309.007 361.107 309.357 360.711 309.917C360.245 310.617 359.128 310.594 358.243 310.384C356.635 309.987 355.308 308.704 353.654 308.517C352.513 308.4 351.348 308.704 350.137 308.774C348.018 308.914 345.875 309.077 343.802 309.52C342.964 309.684 342.079 309.777 341.38 309.334C341.077 309.147 340.798 308.914 340.448 308.75C340.239 308.634 340.192 308.61 340.099 308.564C338.609 307.747 337.234 306.627 335.557 306.347C334.113 306.114 332.623 306.697 331.202 307.117C330.736 307.257 330.503 306.767 330.899 306.604C330.993 306.58 331.086 306.534 331.202 306.51C332.413 306.16 333.624 305.74 334.952 305.74ZM338.189 298.997C340.751 299.044 342.871 301.12 345.526 301.33C347.808 301.494 350.067 300.887 352.35 300.42C353.817 300.14 355.191 301.377 356.403 301.727C357.008 301.914 357.684 301.867 358.336 301.867C358.406 301.867 358.406 301.867 358.475 301.867C359.36 301.844 360.245 301.657 361.061 301.377C361.061 301.377 360.991 300.957 361.526 301.004C361.806 301.027 362.085 301.19 361.946 301.494C361.829 301.774 361.48 301.844 361.2 301.937C359.78 302.45 358.242 302.59 356.775 302.404C355.261 302.194 354.167 300.654 352.466 300.98C351.861 301.097 351.279 301.237 350.673 301.354C348.6 301.797 346.434 302.24 344.338 301.704C342.125 301.144 340.239 299.487 337.956 299.557C336.582 299.604 335.255 300.117 333.974 300.584C333.648 300.7 333.322 300.84 333.089 301.074C333.089 301.074 332.949 301.167 332.832 301.144C332.623 301.097 332.53 300.817 332.693 300.654C332.716 300.607 332.995 300.397 333.228 300.28C333.648 300.07 334.113 299.93 334.556 299.767C334.812 299.674 334.835 299.674 334.952 299.627C335.977 299.254 337.095 298.974 338.189 298.997ZM336.838 292.534C338.329 292.557 339.913 293.117 340.844 294.12C341.31 294.61 341.683 295.147 342.475 295.24C343.919 295.427 345.409 295.217 346.784 294.657C347.948 294.19 349.113 293.607 350.347 293.537C352.886 293.374 355.145 295.824 357.847 295.684C360.315 295.544 362.481 293.56 364.321 293.374C364.438 293.374 364.578 293.374 364.578 293.374C364.787 293.444 364.671 293.374 364.764 293.537L364.787 293.654C364.787 293.77 364.857 293.724 364.671 293.887L364.019 294.19C363.809 294.26 363.762 294.214 363.669 294.12C363.623 294.144 363.553 294.167 363.506 294.19C363.25 294.307 362.994 294.424 362.738 294.564C360.525 295.707 358.149 296.78 355.657 295.94C353.724 295.287 351.931 293.864 350.067 294.12C348.763 294.307 347.575 295.007 346.341 295.404C344.897 295.87 343.29 296.057 341.916 295.684C341.031 295.45 340.565 294.424 339.82 293.98C339.726 293.934 339.633 293.864 339.54 293.817C337.817 292.86 335.511 292.604 333.881 294.214C333.881 294.214 333.671 294.354 333.508 294.237C333.205 294.027 333.624 293.584 334.09 293.257C334.859 292.72 335.767 292.44 336.699 292.417C336.792 292.534 336.792 292.534 336.838 292.534ZM339.959 286.49C341.264 286.514 342.405 287.4 343.546 288.124C344.105 288.474 344.711 288.8 345.386 288.894C347.808 289.267 350.044 287.447 352.583 287.704C354.353 287.89 355.89 288.987 357.684 289.174C359.803 289.384 361.922 288.707 363.809 287.914C363.809 287.914 363.856 287.587 364.461 287.424C364.671 287.377 364.973 287.354 365.067 287.657C365.16 288.007 364.741 288.17 364.298 288.334C361.55 289.43 358.592 290.294 355.82 289.337C354.423 288.847 353.095 288.147 351.605 288.287C349.136 288.52 346.737 290.177 344.338 289.197C342.894 288.614 341.799 287.167 340.146 287.074C338.725 286.98 337.304 287.424 335.977 287.867C335.651 287.984 335.325 288.1 335.022 288.24L334.742 288.334C334.672 288.31 334.719 288.357 334.579 288.24L334.509 288.1C334.486 287.89 334.393 287.937 334.672 287.75C335.464 287.284 336.419 287.097 337.351 286.864C338.213 286.677 339.074 286.49 339.959 286.49ZM364.182 281.03C364.391 281.054 364.578 281.194 364.554 281.427C364.508 281.777 364.019 282.057 363.856 281.684C363.017 281.917 362.225 282.29 361.41 282.664C361.317 282.71 361.317 282.71 361.247 282.734C359.43 283.504 357.357 283.784 355.471 283.387C354.563 283.2 353.887 282.454 352.932 282.407C350.067 282.267 347.412 284.414 344.524 284.11C342.894 283.924 341.357 283.154 340.029 282.5C338.981 282.01 337.723 282.547 336.559 283.014C336.559 283.014 336.326 283.154 336.163 283.084C335.953 283.014 335.93 282.664 336.163 282.547C336.256 282.5 336.349 282.477 336.442 282.43C337.514 281.987 338.585 281.45 339.75 281.754C340.355 281.917 340.868 282.29 341.45 282.5C342.708 282.99 343.965 283.574 345.316 283.55C347.296 283.48 349.019 282.36 350.976 281.964C351.861 281.8 352.792 281.707 353.608 281.894C354.469 282.104 355.075 282.734 356.03 282.874C358.103 283.13 360.176 282.57 362.085 281.73C362.784 281.38 363.576 281.007 364.182 281.03ZM357.777 275.71C359.989 275.734 362.016 277.227 364.182 277.18C364.764 277.157 365.463 277.204 365.812 276.854C365.812 276.854 366.022 276.714 366.185 276.83C366.348 276.947 366.324 277.204 366.138 277.344C365.509 277.834 364.531 277.787 363.762 277.764C361.55 277.67 359.57 276.154 357.427 276.317C355.378 276.457 353.631 278.184 351.395 278.09C349.788 278.02 348.321 276.994 346.76 277.46C346.62 277.507 346.457 277.554 346.318 277.6C344.92 278.137 343.639 279.21 342.102 279.07C340.705 278.93 339.796 277.554 338.585 277.157C337.654 276.854 336.652 277.064 335.72 277.157C335.627 277.157 335.418 277.157 335.325 277.017C335.231 276.854 335.348 276.62 335.557 276.597C335.674 276.597 335.674 276.597 335.767 276.574C336.023 276.55 336.256 276.527 336.512 276.48C337.444 276.387 338.422 276.387 339.237 276.784C340.402 277.367 341.24 278.72 342.708 278.417C344.454 278.067 345.968 276.62 347.832 276.714C349.136 276.784 350.37 277.53 351.628 277.484C353.608 277.414 355.354 275.78 357.567 275.687C357.637 275.71 357.707 275.71 357.777 275.71ZM334.929 276.83C335.231 276.854 335.325 277.32 334.905 277.437C334.719 277.484 334.533 277.6 334.37 277.717C334.253 277.787 334.346 277.717 334.23 277.834C334.044 277.974 333.741 277.834 333.741 277.6C333.741 277.134 334.439 276.807 334.929 276.83Z" fill="black"/>
<path d="M357.625 292.217L366.196 341.403H419.065L426.612 291.353L357.625 292.217Z" fill="url(#paint88_linear_434_157)"/>
<path d="M426.406 298.763C432.951 298.833 439.099 303.85 440.38 310.313C441.312 314.98 439.728 320.067 436.328 323.403C432.368 327.277 426.103 328.56 420.909 326.437C416.298 324.547 412.828 320.09 412.129 315.143C411.29 309.077 414.761 302.66 420.35 300.07C422.237 299.207 424.31 298.763 426.406 298.763ZM426.266 305.507C422.912 305.53 419.745 308.027 418.93 311.317C417.649 316.543 423.192 322.633 429.178 320.183C433.09 318.573 435.07 313.393 433.02 309.543C431.763 307.187 429.201 305.577 426.453 305.507C426.406 305.507 426.336 305.507 426.266 305.507Z" fill="url(#paint89_linear_434_157)"/>
<path d="M426.381 302.436C431.251 302.488 435.826 306.221 436.779 311.03C437.473 314.503 436.294 318.288 433.764 320.771C430.818 323.653 426.156 324.608 422.291 323.028C418.86 321.621 416.277 318.305 415.757 314.624C415.134 310.11 417.716 305.335 421.875 303.408C423.279 302.766 424.821 302.436 426.381 302.436ZM426.277 307.454C423.782 307.471 421.425 309.329 420.818 311.777C419.865 315.666 423.989 320.198 428.443 318.374C431.355 317.176 432.828 313.322 431.303 310.457C430.367 308.704 428.461 307.506 426.416 307.454C426.381 307.454 426.329 307.454 426.277 307.454Z" fill="#0F2890"/>
<path d="M373.276 292.03L426.612 291.353L419.065 341.403H413.173C398.593 331.253 401.411 309.507 387.413 305.447C374.883 301.83 373.16 295.507 373.276 292.03Z" fill="url(#paint90_linear_434_157)"/>
<path d="M428.269 241.753C434.257 241.753 439.111 236.89 439.111 230.891C439.111 224.892 434.257 220.029 428.269 220.029C422.281 220.029 417.427 224.892 417.427 230.891C417.427 236.89 422.281 241.753 428.269 241.753Z" fill="url(#paint91_linear_434_157)"/>
<path d="M428.286 224.14C431.998 224.14 435.008 227.155 435.008 230.874C435.008 234.593 431.998 237.608 428.286 237.608C424.574 237.608 421.565 234.593 421.565 230.874C421.565 227.155 424.574 224.14 428.286 224.14Z" fill="url(#paint92_linear_434_157)"/>
<path d="M383.99 183.087C384.083 183.11 384.153 183.157 384.223 183.227L413.126 219.627C413.336 219.953 412.87 220.42 412.544 220.093L383.64 183.693C383.524 183.53 383.547 183.483 383.571 183.413C383.617 183.25 383.664 183.087 383.99 183.087Z" fill="#FEFFFE"/>
<path d="M397.229 183.087C397.322 183.11 397.392 183.157 397.462 183.227L426.366 219.627C426.575 219.953 426.109 220.42 425.783 220.093L396.88 183.693C396.763 183.53 396.787 183.483 396.81 183.413C396.833 183.25 396.903 183.087 397.229 183.087Z" fill="#FEFFFE"/>
<path d="M480.18 238.2C480.576 238.27 480.599 238.923 480.133 238.923L443.823 236.73C443.427 236.66 443.381 236.007 443.87 236.007C455.981 236.73 468.092 237.477 480.18 238.2Z" fill="#FEFFFE"/>
<path d="M481.643 227.675C482.039 227.745 482.062 228.398 481.596 228.398L445.286 226.205C444.89 226.135 444.844 225.482 445.333 225.482C457.444 226.205 469.532 226.928 481.643 227.675Z" fill="#FEFFFE"/>
<defs>
<linearGradient id="paint0_linear_434_157" x1="161.154" y1="47.0347" x2="95.56" y2="162.341" gradientUnits="userSpaceOnUse">
<stop stop-color="#FAB2FF" stop-opacity="0.05"/>
<stop offset="1" stop-color="#1904E5" stop-opacity="0.05"/>
</linearGradient>
<linearGradient id="paint1_linear_434_157" x1="412.97" y1="178.171" x2="347.381" y2="293.469" gradientUnits="userSpaceOnUse">
<stop stop-color="#FAB2FF" stop-opacity="0.05"/>
<stop offset="1" stop-color="#1904E5" stop-opacity="0.05"/>
</linearGradient>
<linearGradient id="paint2_linear_434_157" x1="268.63" y1="28.6615" x2="203.048" y2="143.918" gradientUnits="userSpaceOnUse">
<stop stop-color="#FAB2FF" stop-opacity="0.05"/>
<stop offset="1" stop-color="#1904E5" stop-opacity="0.05"/>
</linearGradient>
<linearGradient id="paint3_linear_434_157" x1="305.667" y1="279.544" x2="240.096" y2="394.922" gradientUnits="userSpaceOnUse">
<stop stop-color="#FAB2FF" stop-opacity="0.05"/>
<stop offset="1" stop-color="#1904E5" stop-opacity="0.05"/>
</linearGradient>
<linearGradient id="paint4_linear_434_157" x1="330.509" y1="387.912" x2="479.684" y2="220.488" gradientUnits="userSpaceOnUse">
<stop stop-color="#FCDC58"/>
<stop offset="1" stop-color="#FCDC58" stop-opacity="0"/>
</linearGradient>
<linearGradient id="paint5_linear_434_157" x1="385.594" y1="291.862" x2="378.932" y2="368.211" gradientUnits="userSpaceOnUse">
<stop stop-color="#FAB2FF" stop-opacity="0.05"/>
<stop offset="1" stop-color="#1904E5" stop-opacity="0.05"/>
</linearGradient>
<linearGradient id="paint6_linear_434_157" x1="52.5454" y1="195.063" x2="59.7512" y2="273.821" gradientUnits="userSpaceOnUse">
<stop stop-color="#FF7AF5"/>
<stop offset="1" stop-color="#513162"/>
</linearGradient>
<linearGradient id="paint7_linear_434_157" x1="66.4788" y1="163.615" x2="50.8037" y2="240.869" gradientUnits="userSpaceOnUse">
<stop stop-color="#FF7AF5"/>
<stop offset="1" stop-color="#513162"/>
</linearGradient>
<linearGradient id="paint8_linear_434_157" x1="128.157" y1="197.063" x2="185.941" y2="143.191" gradientUnits="userSpaceOnUse">
<stop stop-color="#FF7AF5"/>
<stop offset="1" stop-color="#513162"/>
</linearGradient>
<linearGradient id="paint9_linear_434_157" x1="113.915" y1="165.741" x2="153.698" y2="97.7659" gradientUnits="userSpaceOnUse">
<stop stop-color="#FF7AF5"/>
<stop offset="1" stop-color="#513162"/>
</linearGradient>
<linearGradient id="paint10_linear_434_157" x1="82.7609" y1="172.313" x2="91.7462" y2="270.957" gradientUnits="userSpaceOnUse">
<stop stop-color="#FAB2FF"/>
<stop offset="1" stop-color="#1904E5"/>
</linearGradient>
<linearGradient id="paint11_linear_434_157" x1="109.963" y1="145.119" x2="90.287" y2="241.84" gradientUnits="userSpaceOnUse">
<stop stop-color="#FAB2FF"/>
<stop offset="1" stop-color="#1904E5"/>
</linearGradient>
<linearGradient id="paint12_linear_434_157" x1="57.1119" y1="284.884" x2="106.079" y2="302.724" gradientUnits="userSpaceOnUse">
<stop stop-color="#97ABFF"/>
<stop offset="1" stop-color="#123597"/>
</linearGradient>
<linearGradient id="paint13_linear_434_157" x1="126.372" y1="342.636" x2="99.8645" y2="327.697" gradientUnits="userSpaceOnUse">
<stop stop-color="#97ABFF"/>
<stop offset="1" stop-color="#123597"/>
</linearGradient>
<linearGradient id="paint14_linear_434_157" x1="133.381" y1="62.8697" x2="264.887" y2="143.741" gradientUnits="userSpaceOnUse">
<stop stop-color="#2AFADF" stop-opacity="0.1"/>
<stop offset="1" stop-color="#4C83FF" stop-opacity="0.1"/>
</linearGradient>
<linearGradient id="paint15_linear_434_157" x1="146.856" y1="77.5724" x2="278.362" y2="158.443" gradientUnits="userSpaceOnUse">
<stop stop-color="#2AFADF" stop-opacity="0.1"/>
<stop offset="1" stop-color="#4C83FF" stop-opacity="0.1"/>
</linearGradient>
<linearGradient id="paint16_linear_434_157" x1="156.285" y1="86.8306" x2="413.006" y2="244.704" gradientUnits="userSpaceOnUse">
<stop stop-color="#2AFADF" stop-opacity="0.25"/>
<stop offset="1" stop-color="#4C83FF" stop-opacity="0.25"/>
</linearGradient>
<linearGradient id="paint17_linear_434_157" x1="242.572" y1="142.503" x2="374.079" y2="223.374" gradientUnits="userSpaceOnUse">
<stop stop-color="#2AFADF" stop-opacity="0.1"/>
<stop offset="1" stop-color="#4C83FF" stop-opacity="0.1"/>
</linearGradient>
<linearGradient id="paint18_linear_434_157" x1="258.698" y1="151.588" x2="390.205" y2="232.459" gradientUnits="userSpaceOnUse">
<stop stop-color="#2AFADF" stop-opacity="0.1"/>
<stop offset="1" stop-color="#4C83FF" stop-opacity="0.1"/>
</linearGradient>
<linearGradient id="paint19_linear_434_157" x1="189.506" y1="89.6277" x2="388.408" y2="227.538" gradientUnits="userSpaceOnUse">
<stop stop-color="#2AFADF" stop-opacity="0.5738"/>
<stop offset="1" stop-color="#4C83FF" stop-opacity="0.5738"/>
</linearGradient>
<linearGradient id="paint20_linear_434_157" x1="131.393" y1="188.359" x2="158.087" y2="193.551" gradientUnits="userSpaceOnUse">
<stop stop-color="#2AFADF" stop-opacity="0.5738"/>
<stop offset="1" stop-color="#4C83FF" stop-opacity="0.5738"/>
</linearGradient>
<linearGradient id="paint21_linear_434_157" x1="152.871" y1="167.449" x2="194.706" y2="212.885" gradientUnits="userSpaceOnUse">
<stop stop-color="#2AFADF" stop-opacity="0.5738"/>
<stop offset="1" stop-color="#4C83FF" stop-opacity="0.5738"/>
</linearGradient>
<linearGradient id="paint22_linear_434_157" x1="192.126" y1="181.612" x2="283.807" y2="225.151" gradientUnits="userSpaceOnUse">
<stop stop-color="#2AFADF" stop-opacity="0.5738"/>
<stop offset="1" stop-color="#4C83FF" stop-opacity="0.5738"/>
</linearGradient>
<linearGradient id="paint23_linear_434_157" x1="194.938" y1="158.615" x2="286.619" y2="202.154" gradientUnits="userSpaceOnUse">
<stop stop-color="#2AFADF" stop-opacity="0.5738"/>
<stop offset="1" stop-color="#4C83FF" stop-opacity="0.5738"/>
</linearGradient>
<linearGradient id="paint24_linear_434_157" x1="197.75" y1="135.626" x2="289.431" y2="179.165" gradientUnits="userSpaceOnUse">
<stop stop-color="#2AFADF" stop-opacity="0.5738"/>
<stop offset="1" stop-color="#4C83FF" stop-opacity="0.5738"/>
</linearGradient>
<linearGradient id="paint25_linear_434_157" x1="200.561" y1="112.629" x2="292.243" y2="156.168" gradientUnits="userSpaceOnUse">
<stop stop-color="#2AFADF" stop-opacity="0.5738"/>
<stop offset="1" stop-color="#4C83FF" stop-opacity="0.5738"/>
</linearGradient>
<linearGradient id="paint26_linear_434_157" x1="205.893" y1="168.186" x2="229.769" y2="172.308" gradientUnits="userSpaceOnUse">
<stop stop-color="#2AFADF" stop-opacity="0.5738"/>
<stop offset="1" stop-color="#4C83FF" stop-opacity="0.5738"/>
</linearGradient>
<linearGradient id="paint27_linear_434_157" x1="261.877" y1="168.197" x2="285.751" y2="172.319" gradientUnits="userSpaceOnUse">
<stop stop-color="#2AFADF" stop-opacity="0.5738"/>
<stop offset="1" stop-color="#4C83FF" stop-opacity="0.5738"/>
</linearGradient>
<linearGradient id="paint28_linear_434_157" x1="339.007" y1="172.064" x2="398.128" y2="221.446" gradientUnits="userSpaceOnUse">
<stop stop-color="#2AFADF"/>
<stop offset="1" stop-color="#4C83FF"/>
</linearGradient>
<linearGradient id="paint29_linear_434_157" x1="-62412" y1="164.673" x2="-62412" y2="164.673" gradientUnits="userSpaceOnUse">
<stop stop-color="#2AFADF"/>
<stop offset="1" stop-color="#4C83FF"/>
</linearGradient>
<linearGradient id="paint30_linear_434_157" x1="318.176" y1="96.9359" x2="348.343" y2="112.195" gradientUnits="userSpaceOnUse">
<stop stop-color="#2AFADF" stop-opacity="0.5738"/>
<stop offset="1" stop-color="#4C83FF" stop-opacity="0.5738"/>
</linearGradient>
<linearGradient id="paint31_linear_434_157" x1="217.753" y1="75.4959" x2="213.764" y2="69.8274" gradientUnits="userSpaceOnUse">
<stop/>
<stop offset="1" stop-color="#FF1932"/>
</linearGradient>
<linearGradient id="paint32_linear_434_157" x1="228.065" y1="76.3318" x2="215.274" y2="68.4539" gradientUnits="userSpaceOnUse">
<stop/>
<stop offset="1" stop-color="#FF1932"/>
</linearGradient>
<linearGradient id="paint33_linear_434_157" x1="220.709" y1="50.4995" x2="225.915" y2="45.0103" gradientUnits="userSpaceOnUse">
<stop stop-color="#FAB2FF"/>
<stop offset="1" stop-color="#1904E5"/>
</linearGradient>
<linearGradient id="paint34_linear_434_157" x1="216.977" y1="43.6902" x2="215.41" y2="39.9578" gradientUnits="userSpaceOnUse">
<stop/>
<stop offset="1" stop-color="#FF1932"/>
</linearGradient>
<linearGradient id="paint35_linear_434_157" x1="288.209" y1="134.864" x2="288.506" y2="135.302" gradientUnits="userSpaceOnUse">
<stop/>
<stop offset="1" stop-color="#FF1932"/>
</linearGradient>
<linearGradient id="paint36_linear_434_157" x1="341.681" y1="99.5271" x2="346.659" y2="106.465" gradientUnits="userSpaceOnUse">
<stop stop-color="#FAB2FF"/>
<stop offset="1" stop-color="#1904E5"/>
</linearGradient>
<linearGradient id="paint37_linear_434_157" x1="350.653" y1="141.362" x2="340.78" y2="160.394" gradientUnits="userSpaceOnUse">
<stop/>
<stop offset="1" stop-color="#FF1932"/>
</linearGradient>
<linearGradient id="paint38_linear_434_157" x1="345.921" y1="141.175" x2="331.176" y2="125.634" gradientUnits="userSpaceOnUse">
<stop/>
<stop offset="1" stop-color="#FF1932"/>
</linearGradient>
<linearGradient id="paint39_linear_434_157" x1="-nan" y1="-nan" x2="-nan" y2="-nan" gradientUnits="userSpaceOnUse">
<stop/>
<stop offset="1" stop-color="#FF1932"/>
</linearGradient>
<linearGradient id="paint40_linear_434_157" x1="-nan" y1="-nan" x2="-nan" y2="-nan" gradientUnits="userSpaceOnUse">
<stop/>
<stop offset="1" stop-color="#FF1932"/>
</linearGradient>
<linearGradient id="paint41_linear_434_157" x1="-nan" y1="-nan" x2="-nan" y2="-nan" gradientUnits="userSpaceOnUse">
<stop/>
<stop offset="1" stop-color="#FF1932"/>
</linearGradient>
<linearGradient id="paint42_linear_434_157" x1="-nan" y1="-nan" x2="-nan" y2="-nan" gradientUnits="userSpaceOnUse">
<stop/>
<stop offset="1" stop-color="#FF1932"/>
</linearGradient>
<linearGradient id="paint43_linear_434_157" x1="-nan" y1="-nan" x2="-nan" y2="-nan" gradientUnits="userSpaceOnUse">
<stop/>
<stop offset="1" stop-color="#FF1932"/>
</linearGradient>
<linearGradient id="paint44_linear_434_157" x1="-nan" y1="-nan" x2="-nan" y2="-nan" gradientUnits="userSpaceOnUse">
<stop/>
<stop offset="1" stop-color="#FF1932"/>
</linearGradient>
<linearGradient id="paint45_linear_434_157" x1="-nan" y1="-nan" x2="-nan" y2="-nan" gradientUnits="userSpaceOnUse">
<stop/>
<stop offset="1" stop-color="#FF1932"/>
</linearGradient>
<linearGradient id="paint46_linear_434_157" x1="-nan" y1="-nan" x2="-nan" y2="-nan" gradientUnits="userSpaceOnUse">
<stop/>
<stop offset="1" stop-color="#FF1932"/>
</linearGradient>
<linearGradient id="paint47_linear_434_157" x1="-nan" y1="-nan" x2="-nan" y2="-nan" gradientUnits="userSpaceOnUse">
<stop/>
<stop offset="1" stop-color="#FF1932"/>
</linearGradient>
<linearGradient id="paint48_linear_434_157" x1="-nan" y1="-nan" x2="-nan" y2="-nan" gradientUnits="userSpaceOnUse">
<stop/>
<stop offset="1" stop-color="#FF1932"/>
</linearGradient>
<linearGradient id="paint49_linear_434_157" x1="-nan" y1="-nan" x2="-nan" y2="-nan" gradientUnits="userSpaceOnUse">
<stop/>
<stop offset="1" stop-color="#FF1932"/>
</linearGradient>
<linearGradient id="paint50_linear_434_157" x1="-nan" y1="-nan" x2="-nan" y2="-nan" gradientUnits="userSpaceOnUse">
<stop/>
<stop offset="1" stop-color="#FF1932"/>
</linearGradient>
<linearGradient id="paint51_linear_434_157" x1="-nan" y1="-nan" x2="-nan" y2="-nan" gradientUnits="userSpaceOnUse">
<stop/>
<stop offset="1" stop-color="#FF1932"/>
</linearGradient>
<linearGradient id="paint52_linear_434_157" x1="152.67" y1="246.176" x2="156.46" y2="236.616" gradientUnits="userSpaceOnUse">
<stop stop-color="#FAB2FF"/>
<stop offset="1" stop-color="#1904E5"/>
</linearGradient>
<linearGradient id="paint53_linear_434_157" x1="159.712" y1="292.877" x2="166.547" y2="292.877" gradientUnits="userSpaceOnUse">
<stop stop-color="#FAB2FF"/>
<stop offset="1" stop-color="#1904E5"/>
</linearGradient>
<linearGradient id="paint54_linear_434_157" x1="156.127" y1="280.181" x2="162.961" y2="280.181" gradientUnits="userSpaceOnUse">
<stop stop-color="#FAB2FF"/>
<stop offset="1" stop-color="#1904E5"/>
</linearGradient>
<linearGradient id="paint55_linear_434_157" x1="159.659" y1="270.068" x2="146.351" y2="260.414" gradientUnits="userSpaceOnUse">
<stop/>
<stop offset="1" stop-color="#FF1932"/>
</linearGradient>
<linearGradient id="paint56_linear_434_157" x1="168.742" y1="279.016" x2="148.014" y2="266.509" gradientUnits="userSpaceOnUse">
<stop/>
<stop offset="1" stop-color="#FF1932"/>
</linearGradient>
<linearGradient id="paint57_linear_434_157" x1="-27741.5" y1="4580.97" x2="-30156.1" y2="4949.65" gradientUnits="userSpaceOnUse">
<stop/>
<stop offset="1" stop-color="#FF1932"/>
</linearGradient>
<linearGradient id="paint58_linear_434_157" x1="293.609" y1="292.477" x2="298.107" y2="292.408" gradientUnits="userSpaceOnUse">
<stop stop-color="#FAB2FF"/>
<stop offset="1" stop-color="#1904E5"/>
</linearGradient>
<linearGradient id="paint59_linear_434_157" x1="297.203" y1="341.75" x2="297.203" y2="339.366" gradientUnits="userSpaceOnUse">
<stop stop-color="#FAB2FF"/>
<stop offset="1" stop-color="#1904E5"/>
</linearGradient>
<linearGradient id="paint60_linear_434_157" x1="295.437" y1="314.14" x2="295.179" y2="323.487" gradientUnits="userSpaceOnUse">
<stop stop-color="#FF5120"/>
<stop offset="1" stop-color="#FF5120" stop-opacity="0"/>
</linearGradient>
<linearGradient id="paint61_linear_434_157" x1="290.777" y1="314.849" x2="291.099" y2="322.27" gradientUnits="userSpaceOnUse">
<stop stop-color="#FF5120"/>
<stop offset="1" stop-color="#FF5120" stop-opacity="0"/>
</linearGradient>
<linearGradient id="paint62_linear_434_157" x1="294.873" y1="312.497" x2="290.452" y2="306.037" gradientUnits="userSpaceOnUse">
<stop/>
<stop offset="1" stop-color="#FF1932"/>
</linearGradient>
<linearGradient id="paint63_linear_434_157" x1="308.034" y1="288.199" x2="310.989" y2="301.76" gradientUnits="userSpaceOnUse">
<stop stop-color="#52E5E7"/>
<stop offset="1" stop-color="#130CB7"/>
</linearGradient>
<linearGradient id="paint64_linear_434_157" x1="285.972" y1="295.566" x2="298.917" y2="295.956" gradientUnits="userSpaceOnUse">
<stop stop-color="#FAB2FF"/>
<stop offset="1" stop-color="#1904E5"/>
</linearGradient>
<linearGradient id="paint65_linear_434_157" x1="287.383" y1="293.05" x2="291.88" y2="293.05" gradientUnits="userSpaceOnUse">
<stop stop-color="#FAB2FF"/>
<stop offset="1" stop-color="#1904E5"/>
</linearGradient>
<linearGradient id="paint66_linear_434_157" x1="292.652" y1="341.75" x2="292.652" y2="339.366" gradientUnits="userSpaceOnUse">
<stop stop-color="#FAB2FF"/>
<stop offset="1" stop-color="#1904E5"/>
</linearGradient>
<linearGradient id="paint67_linear_434_157" x1="151.399" y1="247.591" x2="170.209" y2="247.591" gradientUnits="userSpaceOnUse">
<stop stop-color="#FAB2FF"/>
<stop offset="1" stop-color="#1904E5"/>
</linearGradient>
<linearGradient id="paint68_linear_434_157" x1="168.414" y1="233.41" x2="181.394" y2="233.41" gradientUnits="userSpaceOnUse">
<stop stop-color="#FAB2FF"/>
<stop offset="1" stop-color="#1904E5"/>
</linearGradient>
<linearGradient id="paint69_linear_434_157" x1="168.591" y1="228.158" x2="160.178" y2="216.961" gradientUnits="userSpaceOnUse">
<stop/>
<stop offset="1" stop-color="#FF1932"/>
</linearGradient>
<linearGradient id="paint70_linear_434_157" x1="333.401" y1="100.778" x2="346.796" y2="121.862" gradientUnits="userSpaceOnUse">
<stop stop-color="#FAB2FF"/>
<stop offset="1" stop-color="#1904E5"/>
</linearGradient>
<linearGradient id="paint71_linear_434_157" x1="326.898" y1="105.65" x2="328.569" y2="113.641" gradientUnits="userSpaceOnUse">
<stop stop-color="#FAB2FF"/>
<stop offset="1" stop-color="#1904E5"/>
</linearGradient>
<linearGradient id="paint72_linear_434_157" x1="211.463" y1="51.8458" x2="223.079" y2="61.9" gradientUnits="userSpaceOnUse">
<stop stop-color="#FAB2FF"/>
<stop offset="1" stop-color="#1904E5"/>
</linearGradient>
<linearGradient id="paint73_linear_434_157" x1="218.142" y1="50.6545" x2="222.355" y2="57.8638" gradientUnits="userSpaceOnUse">
<stop stop-color="#FAB2FF"/>
<stop offset="1" stop-color="#1904E5"/>
</linearGradient>
<linearGradient id="paint74_linear_434_157" x1="375.986" y1="147.149" x2="393.76" y2="113.684" gradientUnits="userSpaceOnUse">
<stop/>
<stop offset="1" stop-color="#FF1932"/>
</linearGradient>
<linearGradient id="paint75_linear_434_157" x1="419.684" y1="225.884" x2="420.459" y2="191.337" gradientUnits="userSpaceOnUse">
<stop stop-color="#C7C7C7"/>
<stop offset="1" stop-color="#626262"/>
</linearGradient>
<linearGradient id="paint76_linear_434_157" x1="386.145" y1="187.201" x2="374.386" y2="166.369" gradientUnits="userSpaceOnUse">
<stop/>
<stop offset="1" stop-opacity="0"/>
</linearGradient>
<linearGradient id="paint77_linear_434_157" x1="451.1" y1="239.432" x2="450.926" y2="231.163" gradientUnits="userSpaceOnUse">
<stop stop-color="#C7C7C7"/>
<stop offset="1" stop-color="#626262"/>
</linearGradient>
<linearGradient id="paint78_linear_434_157" x1="430.442" y1="224.646" x2="431.176" y2="210.896" gradientUnits="userSpaceOnUse">
<stop stop-color="#C7C7C7"/>
<stop offset="1" stop-color="#626262"/>
</linearGradient>
<linearGradient id="paint79_linear_434_157" x1="397.021" y1="183.64" x2="384.528" y2="166.808" gradientUnits="userSpaceOnUse">
<stop/>
<stop offset="1" stop-opacity="0"/>
</linearGradient>
<linearGradient id="paint80_linear_434_157" x1="454.414" y1="228.55" x2="454.354" y2="224.064" gradientUnits="userSpaceOnUse">
<stop stop-color="#C7C7C7"/>
<stop offset="1" stop-color="#626262"/>
</linearGradient>
<linearGradient id="paint81_linear_434_157" x1="381.78" y1="153.842" x2="381.815" y2="168.244" gradientUnits="userSpaceOnUse">
<stop stop-color="#C7C7C7"/>
<stop offset="1" stop-color="#626262"/>
</linearGradient>
<linearGradient id="paint82_linear_434_157" x1="352.931" y1="175.487" x2="352.931" y2="168.327" gradientUnits="userSpaceOnUse">
<stop stop-color="#C7C7C7"/>
<stop offset="1" stop-color="#626262"/>
</linearGradient>
<linearGradient id="paint83_linear_434_157" x1="408.65" y1="175.487" x2="408.65" y2="168.327" gradientUnits="userSpaceOnUse">
<stop stop-color="#C7C7C7"/>
<stop offset="1" stop-color="#626262"/>
</linearGradient>
<linearGradient id="paint84_linear_434_157" x1="266.913" y1="287.355" x2="234.687" y2="331.762" gradientUnits="userSpaceOnUse">
<stop stop-color="#FAB2FF" stop-opacity="0.05"/>
<stop offset="1" stop-color="#1904E5" stop-opacity="0.05"/>
</linearGradient>
<linearGradient id="paint85_linear_434_157" x1="349.36" y1="262.372" x2="349.36" y2="384.888" gradientUnits="userSpaceOnUse">
<stop stop-color="#C2FFD8" stop-opacity="0.2"/>
<stop offset="1" stop-color="#465EFB" stop-opacity="0.2"/>
</linearGradient>
<linearGradient id="paint86_linear_434_157" x1="34.2937" y1="289.833" x2="2.06478" y2="334.243" gradientUnits="userSpaceOnUse">
<stop stop-color="#FAB2FF" stop-opacity="0.05"/>
<stop offset="1" stop-color="#1904E5" stop-opacity="0.05"/>
</linearGradient>
<linearGradient id="paint87_linear_434_157" x1="406.828" y1="270.876" x2="406.828" y2="393.393" gradientUnits="userSpaceOnUse">
<stop stop-color="#C2FFD8" stop-opacity="0.2"/>
<stop offset="1" stop-color="#465EFB" stop-opacity="0.2"/>
</linearGradient>
<linearGradient id="paint88_linear_434_157" x1="355.794" y1="295.853" x2="421.844" y2="329.096" gradientUnits="userSpaceOnUse">
<stop stop-color="#97ABFF"/>
<stop offset="1" stop-color="#123597"/>
</linearGradient>
<linearGradient id="paint89_linear_434_157" x1="450.256" y1="288.559" x2="423.963" y2="312.184" gradientUnits="userSpaceOnUse">
<stop stop-color="#97ABFF"/>
<stop offset="1" stop-color="#123597"/>
</linearGradient>
<linearGradient id="paint90_linear_434_157" x1="442.805" y1="271.811" x2="396.771" y2="315.975" gradientUnits="userSpaceOnUse">
<stop stop-color="#97ABFF"/>
<stop offset="1" stop-color="#123597"/>
</linearGradient>
<linearGradient id="paint91_linear_434_157" x1="428.297" y1="237.283" x2="428.297" y2="226.009" gradientUnits="userSpaceOnUse">
<stop stop-color="#C7C7C7"/>
<stop offset="1" stop-color="#626262"/>
</linearGradient>
<linearGradient id="paint92_linear_434_157" x1="428.28" y1="226.913" x2="428.28" y2="231.246" gradientUnits="userSpaceOnUse">
<stop stop-color="#C7C7C7"/>
<stop offset="1" stop-color="#626262"/>
</linearGradient>
</defs>
</svg>
