<svg width="91" height="105" viewBox="0 0 91 105" fill="none" xmlns="http://www.w3.org/2000/svg">
<path d="M90.5031 104C89.5974 65.2898 74.5214 -9.31683 20.3664 4.10377C17.2948 4.93074 9.71961 8.26011 5.08856 12.7967C2.50603 15.879 1.02791 21.135 8.63273 23.9663C11.8124 25.1501 21.5796 26.6683 28.518 26.6683C42.104 26.6683 48.838 25.6051 52.1458 23.9663" stroke="white" stroke-width="5"/>
<path d="M10.523 24.4925C12.6495 30.7932 14.6579 38.8367 14.6579 54.3816C14.6579 65.5955 12.2951 78.0094 5.32489 102.819M66.2846 62.0607C67.0722 69.3459 69.3942 124.488 36.6697 58.4478" stroke="white" stroke-width="5"/>
<circle cx="15.5227" cy="13.6144" r="1.89022" fill="white"/>
<path d="M45.5301 13.6144C45.5301 14.6583 44.6838 15.5046 43.6398 15.5046C42.5959 15.5046 41.7496 14.6583 41.7496 13.6144C41.7496 12.5705 42.5959 11.7242 43.6398 11.7242C44.6838 11.7242 45.5301 12.5705 45.5301 13.6144Z" fill="white"/>
<circle cx="36.5514" cy="58.271" r="1.89022" fill="white"/>
<path d="M38.508 57.1171C38.2985 57.9778 37.8221 58.6009 37.4441 58.5089C37.0661 58.4169 36.9296 57.6445 37.1392 56.7838C37.3487 55.9231 37.8251 55.3 38.2031 55.3921C38.5811 55.4841 38.7176 56.2564 38.508 57.1171Z" fill="white"/>
<ellipse cx="36.4076" cy="56.6788" rx="0.704129" ry="1.85313" transform="rotate(-10.7546 36.4076 56.6788)" fill="white"/>
<ellipse cx="35.1922" cy="57.0255" rx="0.720938" ry="1.69361" transform="rotate(-30.257 35.1922 57.0255)" fill="white"/>
<ellipse cx="34.8748" cy="58.443" rx="0.669212" ry="1.49516" transform="rotate(-71.1159 34.8748 58.443)" fill="white"/>
<circle cx="36.5514" cy="58.271" r="1.89022" fill="white"/>
<path d="M38.508 57.1171C38.2985 57.9778 37.8221 58.6009 37.4441 58.5089C37.0661 58.4169 36.9296 57.6445 37.1392 56.7838C37.3487 55.9231 37.8251 55.3 38.2031 55.3921C38.5811 55.4841 38.7176 56.2564 38.508 57.1171Z" fill="white"/>
<ellipse cx="36.4076" cy="56.6788" rx="0.704129" ry="1.85313" transform="rotate(-10.7546 36.4076 56.6788)" fill="white"/>
<ellipse cx="35.1922" cy="57.0255" rx="0.720938" ry="1.69361" transform="rotate(-30.257 35.1922 57.0255)" fill="white"/>
<ellipse cx="34.8748" cy="58.443" rx="0.669212" ry="1.49516" transform="rotate(-71.1159 34.8748 58.443)" fill="white"/>
</svg>
