<svg width="54" height="54" viewBox="0 0 54 54" fill="none" xmlns="http://www.w3.org/2000/svg">
<g clip-path="url(#clip0_441_892)">
<path d="M45 9C46.1353 8.99964 47.2288 9.42841 48.0612 10.2004C48.8937 10.9723 49.4036 12.0304 49.4887 13.1625L49.5 13.5V40.5C49.5004 41.6353 49.0716 42.7288 48.2996 43.5612C47.5277 44.3937 46.4696 44.9036 45.3375 44.9887L45 45H9C7.8647 45.0004 6.77122 44.5716 5.93877 43.7996C5.10631 43.0277 4.5964 41.9696 4.51125 40.8375L4.5 40.5V13.5C4.49964 12.3647 4.92841 11.2712 5.70037 10.4388C6.47232 9.60631 7.5304 9.0964 8.6625 9.01125L9 9H45ZM45 16.6815L29.385 32.2965C28.7522 32.9285 27.8944 33.2835 27 33.2835C26.1056 33.2835 25.2478 32.9285 24.615 32.2965L9 16.6815V40.5H45V16.6815ZM41.8185 13.5H12.1815L27 28.3185L41.8185 13.5Z" fill="black"/>
</g>
<defs>
<clipPath id="clip0_441_892">
<rect width="54" height="54" fill="white"/>
</clipPath>
</defs>
</svg>
