<svg width="168" height="190" viewBox="0 0 168 190" fill="none" xmlns="http://www.w3.org/2000/svg">
<path d="M163.503 189C161.852 118.438 134.371 -17.5571 35.656 6.90637C30.057 8.41381 16.2487 14.4827 7.80709 22.752C3.09957 28.3707 0.405222 37.9514 14.2675 43.1124C20.0634 45.2703 37.8674 48.0377 50.515 48.0377C75.2799 48.0377 87.5547 46.0996 93.5844 43.1124" stroke="black" stroke-width="7"/>
<path d="M17.7132 44.0715C21.5894 55.5567 25.2503 70.2185 25.2503 98.5543C25.2503 118.995 20.9434 141.624 8.23792 186.847M119.357 112.552C120.793 125.832 125.025 226.345 65.3741 105.966" stroke="black" stroke-width="7"/>
<circle cx="26.8268" cy="24.2426" r="3.44555" fill="black"/>
<path d="M81.525 24.2426C81.525 26.1455 79.9824 27.6882 78.0795 27.6882C76.1765 27.6882 74.6339 26.1455 74.6339 24.2426C74.6339 22.3397 76.1765 20.7971 78.0795 20.7971C79.9824 20.7971 81.525 22.3397 81.525 24.2426Z" fill="black"/>
<circle cx="65.1586" cy="105.644" r="3.44555" fill="black"/>
<path d="M68.7252 103.541C68.3432 105.109 67.4749 106.245 66.7859 106.077C66.0968 105.91 65.8479 104.502 66.2299 102.933C66.612 101.364 67.4802 100.228 68.1693 100.396C68.8583 100.564 69.1072 101.972 68.7252 103.541Z" fill="black"/>
<ellipse cx="64.8964" cy="102.742" rx="1.28351" ry="3.37794" transform="rotate(-10.7546 64.8964 102.742)" fill="black"/>
<ellipse cx="62.6809" cy="103.374" rx="1.31415" ry="3.08717" transform="rotate(-30.257 62.6809 103.374)" fill="black"/>
<ellipse cx="62.1024" cy="105.957" rx="1.21986" ry="2.72542" transform="rotate(-71.1159 62.1024 105.957)" fill="black"/>
<circle cx="65.1586" cy="105.644" r="3.44555" fill="black"/>
<path d="M68.7252 103.541C68.3432 105.109 67.4749 106.245 66.7859 106.077C66.0968 105.91 65.8479 104.502 66.2299 102.933C66.612 101.364 67.4802 100.228 68.1693 100.396C68.8583 100.564 69.1072 101.972 68.7252 103.541Z" fill="black"/>
<ellipse cx="64.8964" cy="102.742" rx="1.28351" ry="3.37794" transform="rotate(-10.7546 64.8964 102.742)" fill="black"/>
<ellipse cx="62.6809" cy="103.374" rx="1.31415" ry="3.08717" transform="rotate(-30.257 62.6809 103.374)" fill="black"/>
<ellipse cx="62.1024" cy="105.957" rx="1.21986" ry="2.72542" transform="rotate(-71.1159 62.1024 105.957)" fill="black"/>
</svg>
