<svg width="145" height="141" viewBox="0 0 145 141" fill="none" xmlns="http://www.w3.org/2000/svg">
<path d="M15.6134 139.792C5.3411 106.677 0.57131 34.7131 63.6705 11.7836C87.4434 3.14485 92.1618 5.15556 100.091 5.96491C113.207 7.30378 117.467 12.9794 111.199 20.9038C108.015 22.5551 104.956 24.9702 100.091 27.1394M48.3698 42.1695C63.1581 41.9632 84.7595 33.9747 100.091 27.1394M100.091 27.1394C99.4618 32.0655 104.838 31.1198 104.519 36.2045C102.859 47.9988 101.897 61.2368 101.712 74.7795M107.633 139.792C103.257 120.796 101.404 97.3643 101.712 74.7795M31.2479 80.3826C27.6562 61.9212 17.8005 21.6796 7.11157 8.40462M101.712 74.7795L115.294 54.3067L132.534 31.6789L137.922 18.9643" stroke="white" stroke-width="5.5"/>
<circle cx="6.0341" cy="6.46509" r="3.44805" fill="white"/>
<path d="M9.6032 4.36027C9.22091 5.9303 8.35201 7.06694 7.66247 6.89904C6.97293 6.73114 6.72386 5.32227 7.10615 3.75225C7.48844 2.18223 8.35734 1.04558 9.04688 1.21348C9.73642 1.38138 9.9855 2.79025 9.6032 4.36027Z" fill="white"/>
<ellipse cx="5.77169" cy="3.56068" rx="1.28443" ry="3.38038" transform="rotate(-10.7546 5.77169 3.56068)" fill="white"/>
<ellipse cx="3.55469" cy="4.19321" rx="1.3151" ry="3.0894" transform="rotate(-30.257 3.55469 4.19321)" fill="white"/>
<ellipse cx="2.97569" cy="6.77885" rx="1.22074" ry="2.72739" transform="rotate(-71.1159 2.97569 6.77885)" fill="white"/>
<circle cx="137.971" cy="16.0018" r="3.44805" transform="rotate(31.8108 137.971 16.0018)" fill="white"/>
<path d="M142.113 16.0944C140.961 17.2271 139.623 17.735 139.126 17.2289C138.629 16.7227 139.16 15.3942 140.312 14.2615C141.464 13.1288 142.802 12.6209 143.299 13.127C143.797 13.6332 143.266 14.9617 142.113 16.0944Z" fill="white"/>
<ellipse cx="139.279" cy="13.3953" rx="1.28443" ry="3.38038" transform="rotate(21.0562 139.279 13.3953)" fill="white"/>
<ellipse cx="137.062" cy="12.7642" rx="1.3151" ry="3.0894" transform="rotate(1.5538 137.062 12.7642)" fill="white"/>
<ellipse cx="135.207" cy="14.6563" rx="1.22074" ry="2.72739" transform="rotate(-39.3051 135.207 14.6563)" fill="white"/>
<circle cx="54.7378" cy="26.7224" r="2.58603" fill="white"/>
<circle cx="99.9933" cy="12.4992" r="2.58603" fill="white"/>
</svg>
